<svg width="58" height="13" viewBox="0 0 58 13" fill="none" xmlns="http://www.w3.org/2000/svg">
<path d="M1.776 8.468C1.528 8.468 1.292 8.396 1.068 8.252C0.844 8.116 0.676 7.904 0.564 7.616C0.524 7.512 0.496 7.4 0.48 7.28C0.464 7.16 0.456 7.048 0.456 6.944V6.836C0.456 6.772 0.46 6.708 0.468 6.644C0.484 6.58 0.52 6.548 0.576 6.548C0.592 6.548 0.6 6.556 0.6 6.572C0.6 6.62 0.596 6.672 0.588 6.728C0.588 6.776 0.588 6.824 0.588 6.872C0.588 7.248 0.68 7.532 0.864 7.724C1.056 7.916 1.292 8.012 1.572 8.012C1.852 8.012 2.124 7.932 2.388 7.772C2.652 7.612 2.896 7.408 3.12 7.16C3.344 6.912 3.556 6.604 3.756 6.236C3.956 5.868 4.144 5.48 4.32 5.072C4.496 4.656 4.66 4.248 4.812 3.848C4.972 3.448 5.12 3.092 5.256 2.78C5.336 2.596 5.484 2.44 5.7 2.312C5.924 2.184 6.136 2.092 6.336 2.036C6.28 2.028 6.224 2.024 6.168 2.024C6.12 2.016 6.072 2.008 6.024 2L4.332 1.832C4.204 1.816 4.036 1.804 3.828 1.796C3.62 1.788 3.4 1.784 3.168 1.784C2.856 1.784 2.536 1.804 2.208 1.844C1.88 1.876 1.584 1.936 1.32 2.024C1.056 2.112 0.864 2.244 0.744 2.42C0.68 2.516 0.648 2.628 0.648 2.756C0.648 2.884 0.684 3.004 0.756 3.116C0.828 3.228 0.92 3.316 1.032 3.38C1.048 3.396 1.056 3.408 1.056 3.416C1.056 3.44 1.036 3.46 0.996 3.476C0.964 3.492 0.928 3.492 0.888 3.476C0.816 3.436 0.732 3.368 0.636 3.272C0.54 3.176 0.452 3.076 0.372 2.972C0.3 2.86 0.248 2.768 0.216 2.696C0.168 2.56 0.144 2.44 0.144 2.336C0.144 2.144 0.208 1.988 0.336 1.868C0.472 1.74 0.644 1.644 0.852 1.58C1.068 1.508 1.296 1.46 1.536 1.436C1.784 1.404 2.02 1.388 2.244 1.388C2.332 1.388 2.416 1.388 2.496 1.388C2.576 1.388 2.652 1.392 2.724 1.4C2.98 1.416 3.248 1.432 3.528 1.448C3.808 1.464 4.092 1.484 4.38 1.508L6.288 1.664C6.416 1.672 6.608 1.688 6.864 1.712C7.128 1.728 7.396 1.736 7.668 1.736C7.964 1.736 8.236 1.72 8.484 1.688C8.732 1.648 8.896 1.58 8.976 1.484C8.992 1.452 9.016 1.444 9.048 1.46C9.08 1.476 9.088 1.496 9.072 1.52C9.048 1.616 9.016 1.688 8.976 1.736C8.936 1.816 8.88 1.904 8.808 2C8.744 2.096 8.644 2.16 8.508 2.192C8.476 2.2 8.432 2.208 8.376 2.216C8.32 2.216 8.26 2.216 8.196 2.216C8.012 2.216 7.788 2.204 7.524 2.18C7.268 2.148 7.016 2.116 6.768 2.084C6.528 2.124 6.32 2.236 6.144 2.42C5.968 2.604 5.816 2.816 5.688 3.056C5.56 3.288 5.448 3.508 5.352 3.716C5.176 4.076 5.028 4.408 4.908 4.712C4.796 5.008 4.656 5.336 4.488 5.696C4.32 6.064 4.144 6.428 3.96 6.788C3.776 7.14 3.552 7.46 3.288 7.748C3.088 7.964 2.856 8.136 2.592 8.264C2.328 8.4 2.056 8.468 1.776 8.468ZM7.21969 8.036C7.13969 8.036 7.07169 8.02 7.01569 7.988C6.95969 7.956 6.93169 7.896 6.93169 7.808C6.93169 7.696 6.95969 7.568 7.01569 7.424C7.07169 7.28 7.13569 7.14 7.20769 7.004C7.27969 6.86 7.34369 6.744 7.39969 6.656C7.11969 6.952 6.82769 7.232 6.52369 7.496C6.37169 7.624 6.20369 7.744 6.01969 7.856C5.83569 7.968 5.63969 8.024 5.43169 8.024C5.35169 8.024 5.29569 8 5.26369 7.952C5.23169 7.896 5.21569 7.832 5.21569 7.76C5.21569 7.72 5.21969 7.692 5.22769 7.676C5.26769 7.364 5.36769 7.04 5.52769 6.704C5.68769 6.368 5.88369 6.052 6.11569 5.756C6.34769 5.46 6.58369 5.22 6.82369 5.036C7.09569 4.828 7.39569 4.724 7.72369 4.724H9.10369C9.14369 4.724 9.16369 4.74 9.16369 4.772C9.16369 4.836 9.12769 4.868 9.05569 4.868C8.97569 4.868 8.89569 4.92 8.81569 5.024C8.73569 5.12 8.67569 5.2 8.63569 5.264C8.57969 5.352 8.49169 5.5 8.37169 5.708C8.25169 5.916 8.12769 6.144 7.99969 6.392C7.87969 6.632 7.77569 6.856 7.68769 7.064C7.59969 7.272 7.55569 7.424 7.55569 7.52C7.55569 7.632 7.61169 7.688 7.72369 7.688C7.84369 7.688 7.97969 7.632 8.13169 7.52C8.28369 7.408 8.43569 7.272 8.58769 7.112C8.74769 6.944 8.89169 6.78 9.01969 6.62C9.15569 6.452 9.26369 6.32 9.34369 6.224C9.39169 6.272 9.38769 6.34 9.33169 6.428C9.28369 6.508 9.23969 6.572 9.19969 6.62C9.03969 6.828 8.85569 7.044 8.64769 7.268C8.43969 7.484 8.21169 7.668 7.96369 7.82C7.72369 7.964 7.47569 8.036 7.21969 8.036ZM5.92369 7.616C6.01969 7.616 6.15169 7.548 6.31969 7.412C6.49569 7.268 6.68369 7.092 6.88369 6.884C7.08369 6.668 7.27169 6.444 7.44769 6.212C7.62369 5.972 7.76769 5.756 7.87969 5.564C7.99969 5.364 8.05969 5.212 8.05969 5.108C8.05969 5.02 8.03169 4.96 7.97569 4.928C7.92769 4.896 7.86369 4.88 7.78369 4.88C7.65569 4.88 7.51569 4.928 7.36369 5.024C7.21969 5.112 7.10369 5.2 7.01569 5.288C6.91969 5.376 6.80369 5.516 6.66769 5.708C6.53969 5.892 6.41169 6.096 6.28369 6.32C6.15569 6.544 6.04769 6.76 5.95969 6.968C5.87169 7.176 5.82769 7.344 5.82769 7.472C5.82769 7.568 5.85969 7.616 5.92369 7.616ZM11.263 8.06C11.063 8.06 10.911 7.992 10.807 7.856C10.743 7.76 10.679 7.616 10.615 7.424C10.551 7.232 10.495 7.032 10.447 6.824C10.399 6.616 10.359 6.448 10.327 6.32C10.103 6.608 9.90303 6.896 9.72703 7.184C9.55903 7.472 9.44703 7.696 9.39103 7.856C9.37503 7.904 9.31903 7.944 9.22303 7.976C9.13503 8.008 9.04703 8.024 8.95903 8.024C8.83103 8.024 8.78303 7.984 8.81503 7.904C9.06303 7.352 9.29903 6.82 9.52303 6.308C9.74703 5.796 9.98303 5.28 10.231 4.76C10.487 4.24 10.775 3.7 11.095 3.14C11.319 2.732 11.587 2.34 11.899 1.964C12.219 1.58 12.559 1.268 12.919 1.028C13.279 0.779999 13.643 0.655999 14.011 0.655999C14.131 0.655999 14.243 0.687999 14.347 0.752C14.451 0.816 14.503 0.916 14.503 1.052V1.4C14.503 1.432 14.479 1.448 14.431 1.448C14.407 1.448 14.395 1.44 14.395 1.424C14.395 1.296 14.339 1.212 14.227 1.172C14.115 1.124 14.007 1.1 13.903 1.1C13.623 1.1 13.339 1.156 13.051 1.268C12.731 1.396 12.463 1.588 12.247 1.844C12.031 2.1 11.831 2.372 11.647 2.66C11.407 3.028 11.171 3.46 10.939 3.956C10.707 4.444 10.491 4.936 10.291 5.432C10.099 5.928 9.92703 6.376 9.77503 6.776C9.86303 6.664 9.95103 6.552 10.039 6.44C10.127 6.328 10.211 6.224 10.291 6.128C10.291 6.112 10.287 6.096 10.279 6.08C10.279 6.064 10.279 6.048 10.279 6.032C10.279 5.976 10.291 5.928 10.315 5.888C10.339 5.848 10.371 5.8 10.411 5.744C10.467 5.664 10.519 5.604 10.567 5.564C10.615 5.516 10.667 5.456 10.723 5.384L10.759 5.588C11.111 5.228 11.419 4.968 11.683 4.808C11.867 4.696 12.047 4.64 12.223 4.64C12.399 4.64 12.487 4.708 12.487 4.844C12.487 4.956 12.431 5.096 12.319 5.264C12.279 5.32 12.255 5.36 12.247 5.384C12.239 5.408 12.223 5.432 12.199 5.456C12.191 5.464 12.175 5.464 12.151 5.456C12.127 5.448 12.115 5.436 12.115 5.42C12.115 5.324 12.083 5.264 12.019 5.24C11.955 5.208 11.883 5.192 11.803 5.192C11.651 5.192 11.487 5.248 11.311 5.36C11.143 5.464 10.971 5.608 10.795 5.792C10.835 5.992 10.879 6.212 10.927 6.452C10.983 6.684 11.043 6.9 11.107 7.1C11.171 7.3 11.231 7.448 11.287 7.544C11.327 7.608 11.383 7.652 11.455 7.676C11.527 7.692 11.587 7.7 11.635 7.7C11.747 7.7 11.875 7.644 12.019 7.532C12.171 7.412 12.323 7.272 12.475 7.112C12.635 6.944 12.779 6.78 12.907 6.62C13.043 6.46 13.147 6.332 13.219 6.236C13.251 6.276 13.259 6.316 13.243 6.356C13.235 6.404 13.211 6.456 13.171 6.512C13.139 6.56 13.107 6.604 13.075 6.644C12.915 6.844 12.743 7.048 12.559 7.256C12.375 7.456 12.179 7.636 11.971 7.796C11.883 7.868 11.775 7.932 11.647 7.988C11.519 8.036 11.391 8.06 11.263 8.06ZM13.6897 8.096C13.3617 8.096 13.1337 8.032 13.0057 7.904C12.8777 7.776 12.8137 7.62 12.8137 7.436C12.8137 7.204 12.8737 6.956 12.9937 6.692C13.1217 6.428 13.2417 6.204 13.3537 6.02C13.4817 5.828 13.6537 5.628 13.8697 5.42C14.0857 5.212 14.3217 5.036 14.5777 4.892C14.8337 4.748 15.0817 4.676 15.3217 4.676C15.5297 4.676 15.6737 4.728 15.7537 4.832C15.8337 4.928 15.8737 5.044 15.8737 5.18C15.8737 5.428 15.7977 5.632 15.6457 5.792C15.5017 5.952 15.3217 6.084 15.1057 6.188C14.8897 6.284 14.6817 6.364 14.4817 6.428C14.3617 6.46 14.2217 6.492 14.0617 6.524C13.9017 6.556 13.7497 6.572 13.6057 6.572C13.5497 6.716 13.5057 6.856 13.4737 6.992C13.4417 7.128 13.4257 7.252 13.4257 7.364C13.4257 7.5 13.4577 7.612 13.5217 7.7C13.5937 7.788 13.7097 7.832 13.8697 7.832C13.9337 7.832 14.0097 7.824 14.0977 7.808C14.1857 7.792 14.2817 7.768 14.3857 7.736C14.6257 7.656 14.8617 7.528 15.0937 7.352C15.3257 7.176 15.5377 6.988 15.7297 6.788C15.9297 6.58 16.0817 6.408 16.1857 6.272C16.2097 6.296 16.2217 6.324 16.2217 6.356C16.2217 6.396 16.1937 6.46 16.1377 6.548C15.9777 6.772 15.7697 7.004 15.5137 7.244C15.2577 7.484 14.9737 7.688 14.6617 7.856C14.3497 8.016 14.0257 8.096 13.6897 8.096ZM13.7017 6.332C13.8057 6.34 13.9217 6.34 14.0497 6.332C14.1857 6.316 14.3177 6.288 14.4457 6.248C14.7737 6.152 15.0097 6 15.1537 5.792C15.3057 5.576 15.3817 5.384 15.3817 5.216C15.3817 5.12 15.3617 5.04 15.3217 4.976C15.2817 4.912 15.2177 4.88 15.1297 4.88C14.8977 4.88 14.6897 4.968 14.5057 5.144C14.3217 5.312 14.1617 5.508 14.0257 5.732C13.8897 5.956 13.7817 6.156 13.7017 6.332ZM19.6533 8.036C19.5733 8.036 19.5053 8.02 19.4493 7.988C19.3933 7.956 19.3653 7.896 19.3653 7.808C19.3653 7.696 19.3933 7.568 19.4493 7.424C19.5053 7.28 19.5693 7.14 19.6413 7.004C19.7133 6.86 19.7773 6.744 19.8333 6.656C19.5533 6.952 19.2613 7.232 18.9573 7.496C18.8053 7.624 18.6373 7.744 18.4533 7.856C18.2693 7.968 18.0733 8.024 17.8653 8.024C17.7853 8.024 17.7293 8 17.6973 7.952C17.6653 7.896 17.6493 7.832 17.6493 7.76C17.6493 7.72 17.6533 7.692 17.6613 7.676C17.7013 7.364 17.8013 7.04 17.9613 6.704C18.1213 6.368 18.3173 6.052 18.5493 5.756C18.7813 5.46 19.0173 5.22 19.2573 5.036C19.5293 4.828 19.8293 4.724 20.1573 4.724H21.5373C21.5773 4.724 21.5973 4.74 21.5973 4.772C21.5973 4.836 21.5613 4.868 21.4893 4.868C21.4093 4.868 21.3293 4.92 21.2493 5.024C21.1693 5.12 21.1093 5.2 21.0693 5.264C21.0133 5.352 20.9253 5.5 20.8053 5.708C20.6853 5.916 20.5613 6.144 20.4333 6.392C20.3133 6.632 20.2093 6.856 20.1213 7.064C20.0333 7.272 19.9893 7.424 19.9893 7.52C19.9893 7.632 20.0453 7.688 20.1573 7.688C20.2773 7.688 20.4133 7.632 20.5653 7.52C20.7173 7.408 20.8693 7.272 21.0213 7.112C21.1813 6.944 21.3253 6.78 21.4533 6.62C21.5893 6.452 21.6973 6.32 21.7773 6.224C21.8253 6.272 21.8213 6.34 21.7653 6.428C21.7173 6.508 21.6733 6.572 21.6333 6.62C21.4733 6.828 21.2893 7.044 21.0813 7.268C20.8733 7.484 20.6453 7.668 20.3973 7.82C20.1573 7.964 19.9093 8.036 19.6533 8.036ZM18.3573 7.616C18.4533 7.616 18.5853 7.548 18.7533 7.412C18.9293 7.268 19.1173 7.092 19.3173 6.884C19.5173 6.668 19.7053 6.444 19.8813 6.212C20.0573 5.972 20.2013 5.756 20.3133 5.564C20.4333 5.364 20.4933 5.212 20.4933 5.108C20.4933 5.02 20.4653 4.96 20.4093 4.928C20.3613 4.896 20.2973 4.88 20.2173 4.88C20.0893 4.88 19.9493 4.928 19.7973 5.024C19.6533 5.112 19.5373 5.2 19.4493 5.288C19.3533 5.376 19.2373 5.516 19.1013 5.708C18.9733 5.892 18.8453 6.096 18.7173 6.32C18.5893 6.544 18.4813 6.76 18.3933 6.968C18.3053 7.176 18.2613 7.344 18.2613 7.472C18.2613 7.568 18.2933 7.616 18.3573 7.616ZM21.6206 8.18C21.5886 8.18 21.5886 8.144 21.6206 8.072C21.6606 8 21.6966 7.92 21.7286 7.832C21.7686 7.744 21.8086 7.648 21.8486 7.544C21.9286 7.352 22.0166 7.136 22.1126 6.896C22.2086 6.656 22.3006 6.424 22.3886 6.2C22.4766 5.968 22.5526 5.772 22.6166 5.612C22.6886 5.444 22.7366 5.336 22.7606 5.288C22.6486 5.408 22.5126 5.56 22.3526 5.744C22.2006 5.92 22.0566 6.092 21.9206 6.26C21.7846 6.428 21.6806 6.56 21.6086 6.656C21.5846 6.688 21.5646 6.704 21.5486 6.704C21.5326 6.704 21.5246 6.684 21.5246 6.644C21.5246 6.58 21.5446 6.52 21.5846 6.464C21.7366 6.272 21.9046 6.056 22.0886 5.816C22.2806 5.576 22.4526 5.356 22.6046 5.156C22.7566 4.948 22.8526 4.812 22.8926 4.748C22.9806 4.732 23.1086 4.708 23.2766 4.676C23.4526 4.644 23.5726 4.6 23.6366 4.544C23.6606 4.52 23.6846 4.508 23.7086 4.508C23.7246 4.508 23.7326 4.524 23.7326 4.556C23.7406 4.58 23.7326 4.608 23.7086 4.64C23.6606 4.696 23.5766 4.828 23.4566 5.036C23.3446 5.236 23.2206 5.46 23.0846 5.708C22.9566 5.956 22.8366 6.18 22.7246 6.38C22.8206 6.252 22.9246 6.128 23.0366 6.008C23.1486 5.888 23.2566 5.772 23.3606 5.66C23.4566 5.564 23.5886 5.444 23.7566 5.3C23.9246 5.156 24.1006 5.024 24.2846 4.904C24.4686 4.784 24.6286 4.716 24.7646 4.7C24.7966 4.692 24.8246 4.688 24.8486 4.688C24.8806 4.688 24.9046 4.688 24.9206 4.688C25.0966 4.688 25.1846 4.752 25.1846 4.88C25.1846 4.976 25.1326 5.104 25.0286 5.264C24.9726 5.352 24.8846 5.5 24.7646 5.708C24.6526 5.908 24.5366 6.128 24.4166 6.368C24.3046 6.6 24.2046 6.82 24.1166 7.028C24.0366 7.228 23.9966 7.376 23.9966 7.472C23.9966 7.584 24.0526 7.64 24.1646 7.64C24.3006 7.64 24.4486 7.572 24.6086 7.436C24.7766 7.3 24.9566 7.128 25.1486 6.92C25.3406 6.704 25.5326 6.476 25.7246 6.236C25.7406 6.252 25.7486 6.28 25.7486 6.32C25.7486 6.376 25.7286 6.432 25.6886 6.488C25.6566 6.536 25.6246 6.58 25.5926 6.62C25.5126 6.724 25.4046 6.856 25.2686 7.016C25.1406 7.168 25.0086 7.32 24.8726 7.472C24.7366 7.616 24.6126 7.732 24.5006 7.82C24.4206 7.876 24.3166 7.936 24.1886 8C24.0606 8.064 23.9326 8.096 23.8046 8.096C23.6606 8.096 23.5606 8.06 23.5046 7.988C23.4486 7.908 23.4206 7.812 23.4206 7.7C23.4206 7.572 23.4446 7.436 23.4926 7.292C23.5406 7.148 23.5926 7.012 23.6486 6.884C23.7126 6.748 23.7606 6.648 23.7926 6.584C23.9366 6.304 24.0686 6.04 24.1886 5.792C24.3086 5.544 24.3926 5.368 24.4406 5.264C24.4646 5.216 24.4766 5.176 24.4766 5.144C24.4766 5.088 24.4326 5.084 24.3446 5.132C24.2566 5.18 24.1486 5.252 24.0206 5.348C23.9006 5.444 23.7886 5.54 23.6846 5.636C23.5806 5.724 23.5126 5.784 23.4806 5.816C23.1846 6.128 22.9246 6.476 22.7006 6.86C22.4846 7.236 22.3006 7.624 22.1486 8.024C22.0446 8.032 21.9406 8.06 21.8366 8.108C21.7326 8.156 21.6606 8.18 21.6206 8.18ZM25.7016 8.024C25.5736 8.024 25.4576 8 25.3536 7.952C25.2576 7.896 25.2096 7.78 25.2096 7.604C25.2096 7.324 25.2816 7.044 25.4256 6.764C25.5696 6.476 25.7176 6.224 25.8696 6.008C26.0056 5.824 26.1576 5.652 26.3256 5.492C26.5016 5.324 26.6896 5.18 26.8896 5.06C27.0176 4.98 27.1896 4.896 27.4056 4.808C27.6296 4.712 27.8176 4.664 27.9696 4.664C28.0976 4.664 28.2096 4.7 28.3056 4.772C28.4016 4.836 28.4496 4.956 28.4496 5.132C28.4496 5.404 28.3776 5.684 28.2336 5.972C28.0976 6.252 27.9536 6.5 27.8016 6.716C27.7296 6.812 27.6576 6.904 27.5856 6.992C27.5136 7.072 27.4336 7.156 27.3456 7.244C27.6416 7.244 27.9136 7.16 28.1616 6.992C28.4096 6.816 28.6256 6.604 28.8096 6.356L28.8336 6.332C28.8576 6.332 28.8696 6.356 28.8696 6.404C28.8696 6.46 28.8536 6.512 28.8216 6.56C28.6616 6.784 28.4616 6.984 28.2216 7.16C27.9816 7.328 27.7096 7.412 27.4056 7.412C27.3736 7.412 27.3416 7.412 27.3096 7.412C27.2776 7.412 27.2456 7.408 27.2136 7.4C26.7656 7.816 26.2616 8.024 25.7016 8.024ZM26.0136 7.82C26.1256 7.82 26.2456 7.78 26.3736 7.7C26.5096 7.62 26.6136 7.544 26.6856 7.472C26.8216 7.336 26.9456 7.192 27.0576 7.04C27.1696 6.88 27.2736 6.72 27.3696 6.56C27.4816 6.368 27.5936 6.14 27.7056 5.876C27.8176 5.612 27.8736 5.364 27.8736 5.132C27.8736 4.948 27.8096 4.856 27.6816 4.856C27.5776 4.856 27.4496 4.9 27.2976 4.988C27.1536 5.076 27.0456 5.156 26.9736 5.228C26.7016 5.508 26.4736 5.812 26.2896 6.14C26.1856 6.324 26.0736 6.54 25.9536 6.788C25.8336 7.036 25.7736 7.264 25.7736 7.472C25.7736 7.504 25.7736 7.536 25.7736 7.568C25.7816 7.592 25.7896 7.62 25.7976 7.652C25.8296 7.764 25.9016 7.82 26.0136 7.82ZM29.1653 8.036C29.0853 8.036 29.0173 8.02 28.9613 7.988C28.9053 7.956 28.8773 7.896 28.8773 7.808C28.8773 7.696 28.9053 7.564 28.9613 7.412C29.0253 7.26 29.0933 7.108 29.1653 6.956C29.2373 6.804 29.2973 6.68 29.3453 6.584C29.3853 6.512 29.4373 6.4 29.5013 6.248C29.5733 6.088 29.6453 5.924 29.7173 5.756C29.7973 5.58 29.8613 5.432 29.9093 5.312C29.9653 5.192 29.9933 5.132 29.9933 5.132C29.9213 5.212 29.8253 5.324 29.7053 5.468C29.5933 5.612 29.4693 5.764 29.3333 5.924C29.2053 6.076 29.0853 6.22 28.9733 6.356C28.8693 6.492 28.7933 6.592 28.7453 6.656C28.7213 6.688 28.7013 6.704 28.6853 6.704C28.6693 6.704 28.6613 6.684 28.6613 6.644C28.6613 6.58 28.6813 6.52 28.7213 6.464C28.8173 6.344 28.9333 6.2 29.0693 6.032C29.2053 5.856 29.3413 5.68 29.4773 5.504C29.6213 5.328 29.7453 5.172 29.8493 5.036C29.7853 5.036 29.7013 5.04 29.5973 5.048C29.5013 5.056 29.4133 5.068 29.3333 5.084C29.2533 5.092 29.2093 5.096 29.2013 5.096C29.1613 5.096 29.1653 5.064 29.2133 5C29.2613 4.936 29.3253 4.872 29.4053 4.808C29.4853 4.744 29.5453 4.712 29.5853 4.712C29.5933 4.712 29.6573 4.716 29.7773 4.724C29.8973 4.724 29.9853 4.724 30.0413 4.724C30.2013 4.508 30.3573 4.26 30.5093 3.98C30.6693 3.7 30.8253 3.392 30.9773 3.056C31.0413 3.048 31.1493 3.004 31.3013 2.924C31.4613 2.836 31.5853 2.748 31.6733 2.66C31.7133 2.62 31.7453 2.6 31.7693 2.6C31.8173 2.6 31.8173 2.632 31.7693 2.696C31.7133 2.76 31.6173 2.896 31.4813 3.104C31.3453 3.304 31.1933 3.548 31.0253 3.836C30.8573 4.116 30.6973 4.412 30.5453 4.724H31.5173C31.6053 4.724 31.6493 4.736 31.6493 4.76C31.6493 4.792 31.5893 4.824 31.4693 4.856C31.3333 4.896 31.1893 4.92 31.0373 4.928C30.8933 4.936 30.7573 4.952 30.6293 4.976C30.5093 5 30.4213 5.052 30.3653 5.132C30.3173 5.188 30.2493 5.308 30.1613 5.492C30.0733 5.676 29.9773 5.888 29.8733 6.128C29.7773 6.36 29.6933 6.596 29.6213 6.836C29.5493 7.068 29.5053 7.264 29.4893 7.424V7.472C29.4893 7.536 29.5093 7.588 29.5493 7.628C29.5893 7.668 29.6293 7.688 29.6693 7.688C29.7733 7.688 29.9053 7.624 30.0653 7.496C30.2333 7.368 30.4053 7.216 30.5813 7.04C30.7573 6.856 30.9093 6.688 31.0373 6.536C31.0933 6.472 31.1413 6.412 31.1813 6.356C31.2293 6.3 31.2573 6.264 31.2653 6.248C31.2813 6.28 31.2893 6.304 31.2893 6.32C31.2893 6.368 31.2733 6.42 31.2413 6.476C31.2173 6.532 31.1893 6.58 31.1573 6.62C31.0053 6.82 30.8213 7.032 30.6053 7.256C30.3893 7.472 30.1573 7.656 29.9093 7.808C29.6693 7.96 29.4213 8.036 29.1653 8.036ZM32.8403 8.072C32.7203 8.072 32.6123 8.048 32.5163 8C32.4283 7.952 32.3843 7.864 32.3843 7.736C32.3843 7.664 32.4003 7.584 32.4323 7.496C32.5043 7.312 32.6003 7.088 32.7203 6.824C32.8483 6.56 32.9763 6.304 33.1043 6.056C33.2323 5.8 33.3323 5.592 33.4043 5.432C33.4523 5.336 33.4763 5.268 33.4763 5.228C33.4763 5.156 33.4363 5.14 33.3563 5.18C33.2763 5.22 33.1883 5.276 33.0923 5.348C32.9963 5.42 32.9243 5.476 32.8763 5.516C32.6683 5.708 32.4483 5.936 32.2163 6.2C31.9923 6.456 31.7843 6.728 31.5923 7.016C31.4083 7.296 31.2643 7.576 31.1603 7.856C31.1523 7.904 31.1003 7.944 31.0043 7.976C30.9083 8.008 30.8203 8.024 30.7403 8.024C30.6122 8.024 30.5642 7.984 30.5962 7.904C30.7803 7.488 30.9683 7.028 31.1603 6.524C31.3603 6.02 31.5843 5.504 31.8323 4.976C32.0163 4.576 32.2203 4.164 32.4443 3.74C32.6763 3.316 32.9323 2.912 33.2123 2.528C33.4923 2.136 33.8003 1.792 34.1363 1.496C34.4323 1.24 34.7563 1.032 35.1083 0.872C35.4683 0.704 35.8563 0.62 36.2723 0.62C36.4563 0.62 36.6163 0.66 36.7523 0.74C36.8883 0.812 36.9643 0.944 36.9803 1.136V1.244C36.9803 1.356 36.9683 1.468 36.9443 1.58C36.9363 1.612 36.9043 1.628 36.8483 1.628C36.8243 1.628 36.8163 1.624 36.8242 1.616C36.8563 1.408 36.8003 1.26 36.6562 1.172C36.5203 1.084 36.3443 1.04 36.1283 1.04C35.7363 1.04 35.3763 1.112 35.0483 1.256C34.7203 1.4 34.4163 1.592 34.1363 1.832C33.7043 2.208 33.3283 2.688 33.0083 3.272C32.6883 3.856 32.4123 4.452 32.1803 5.06C32.0683 5.356 31.9563 5.652 31.8443 5.948C31.7403 6.244 31.6403 6.52 31.5443 6.776C31.9043 6.296 32.2483 5.884 32.5763 5.54C32.9123 5.196 33.2043 4.952 33.4523 4.808C33.6523 4.696 33.8323 4.64 33.9923 4.64C34.1443 4.64 34.2203 4.704 34.2203 4.832C34.2203 4.944 34.1643 5.088 34.0523 5.264C33.9963 5.352 33.9083 5.5 33.7883 5.708C33.6763 5.916 33.5563 6.144 33.4283 6.392C33.3083 6.632 33.2043 6.856 33.1163 7.064C33.0283 7.272 32.9843 7.424 32.9843 7.52C32.9843 7.648 33.0403 7.712 33.1523 7.712C33.2163 7.712 33.2883 7.692 33.3683 7.652C33.4563 7.612 33.5203 7.576 33.5603 7.544C33.7763 7.384 33.9883 7.188 34.1963 6.956C34.4043 6.724 34.5803 6.52 34.7243 6.344C34.7323 6.336 34.7363 6.348 34.7363 6.38C34.7363 6.412 34.7283 6.46 34.7123 6.524C34.7043 6.58 34.6803 6.628 34.6403 6.668C34.5523 6.788 34.4603 6.904 34.3643 7.016C34.2763 7.12 34.1883 7.224 34.1003 7.328C33.9483 7.504 33.7643 7.672 33.5483 7.832C33.3403 7.992 33.1043 8.072 32.8403 8.072ZM35.2756 8.096C34.9476 8.096 34.7196 8.032 34.5916 7.904C34.4636 7.776 34.3996 7.62 34.3996 7.436C34.3996 7.204 34.4596 6.956 34.5796 6.692C34.7076 6.428 34.8276 6.204 34.9396 6.02C35.0676 5.828 35.2396 5.628 35.4556 5.42C35.6716 5.212 35.9076 5.036 36.1636 4.892C36.4196 4.748 36.6676 4.676 36.9076 4.676C37.1156 4.676 37.2596 4.728 37.3396 4.832C37.4196 4.928 37.4596 5.044 37.4596 5.18C37.4596 5.428 37.3836 5.632 37.2316 5.792C37.0876 5.952 36.9076 6.084 36.6916 6.188C36.4756 6.284 36.2676 6.364 36.0676 6.428C35.9476 6.46 35.8076 6.492 35.6476 6.524C35.4876 6.556 35.3356 6.572 35.1916 6.572C35.1356 6.716 35.0916 6.856 35.0596 6.992C35.0276 7.128 35.0116 7.252 35.0116 7.364C35.0116 7.5 35.0436 7.612 35.1076 7.7C35.1796 7.788 35.2956 7.832 35.4556 7.832C35.5196 7.832 35.5956 7.824 35.6836 7.808C35.7716 7.792 35.8676 7.768 35.9716 7.736C36.2116 7.656 36.4476 7.528 36.6796 7.352C36.9116 7.176 37.1236 6.988 37.3156 6.788C37.5156 6.58 37.6676 6.408 37.7716 6.272C37.7956 6.296 37.8076 6.324 37.8076 6.356C37.8076 6.396 37.7796 6.46 37.7236 6.548C37.5636 6.772 37.3556 7.004 37.0996 7.244C36.8436 7.484 36.5596 7.688 36.2476 7.856C35.9356 8.016 35.6116 8.096 35.2756 8.096ZM35.2876 6.332C35.3916 6.34 35.5076 6.34 35.6356 6.332C35.7716 6.316 35.9036 6.288 36.0316 6.248C36.3596 6.152 36.5956 6 36.7396 5.792C36.8916 5.576 36.9676 5.384 36.9676 5.216C36.9676 5.12 36.9476 5.04 36.9076 4.976C36.8676 4.912 36.8036 4.88 36.7156 4.88C36.4836 4.88 36.2756 4.968 36.0916 5.144C35.9076 5.312 35.7476 5.508 35.6116 5.732C35.4756 5.956 35.3676 6.156 35.2876 6.332ZM37.6519 8.168C37.6199 8.168 37.6199 8.136 37.6519 8.072C37.6919 8 37.7279 7.92 37.7599 7.832C37.7999 7.744 37.8399 7.648 37.8799 7.544C37.9599 7.352 38.0479 7.136 38.1439 6.896C38.2399 6.656 38.3319 6.424 38.4199 6.2C38.5079 5.968 38.5839 5.772 38.6479 5.612C38.7199 5.444 38.7679 5.336 38.7919 5.288C38.6799 5.408 38.5439 5.56 38.3839 5.744C38.2319 5.92 38.0879 6.092 37.9519 6.26C37.8159 6.428 37.7119 6.56 37.6399 6.656C37.6159 6.688 37.5959 6.704 37.5799 6.704C37.5639 6.704 37.5559 6.684 37.5559 6.644C37.5559 6.58 37.5759 6.52 37.6159 6.464C37.7679 6.272 37.9359 6.056 38.1199 5.816C38.3119 5.576 38.4839 5.356 38.6359 5.156C38.7879 4.948 38.8839 4.812 38.9239 4.748C39.0119 4.732 39.1399 4.708 39.3079 4.676C39.4839 4.644 39.6039 4.6 39.6679 4.544C39.6919 4.52 39.7159 4.508 39.7399 4.508C39.7559 4.508 39.7639 4.524 39.7639 4.556C39.7719 4.58 39.7639 4.608 39.7399 4.64C39.6919 4.688 39.6199 4.792 39.5239 4.952C39.4359 5.112 39.3359 5.296 39.2239 5.504C39.1119 5.712 39.0039 5.912 38.8999 6.104C38.9799 5.984 39.0839 5.844 39.2119 5.684C39.3479 5.516 39.4959 5.356 39.6559 5.204C39.8159 5.044 39.9759 4.912 40.1359 4.808C40.3039 4.704 40.4599 4.652 40.6039 4.652C40.7079 4.652 40.7959 4.676 40.8679 4.724C40.9399 4.764 40.9959 4.84 41.0359 4.952C41.0599 5.008 41.0719 5.072 41.0719 5.144C41.0719 5.28 41.0359 5.412 40.9639 5.54C40.8999 5.66 40.8519 5.752 40.8199 5.816C40.8119 5.84 40.7839 5.864 40.7359 5.888C40.6879 5.904 40.6679 5.896 40.6759 5.864C40.6839 5.824 40.6879 5.784 40.6879 5.744C40.6959 5.704 40.6999 5.66 40.6999 5.612C40.6999 5.476 40.6719 5.352 40.6159 5.24C40.5679 5.128 40.4759 5.072 40.3399 5.072C40.2119 5.072 40.0559 5.152 39.8719 5.312C39.6879 5.472 39.5039 5.656 39.3199 5.864C39.0879 6.136 38.9039 6.396 38.7679 6.644C38.6319 6.884 38.5199 7.12 38.4319 7.352C38.3839 7.48 38.3359 7.608 38.2879 7.736C38.2399 7.856 38.2039 7.952 38.1799 8.024C38.0759 8.032 37.9719 8.056 37.8679 8.096C37.7639 8.144 37.6919 8.168 37.6519 8.168ZM39.0727 12.2C38.7687 12.2 38.4767 12.128 38.1967 11.984C37.9087 11.848 37.6967 11.636 37.5607 11.348C37.5127 11.244 37.4807 11.132 37.4647 11.012C37.4487 10.9 37.4407 10.788 37.4407 10.676V10.544C37.4407 10.48 37.4487 10.42 37.4647 10.364C37.4807 10.316 37.5207 10.292 37.5847 10.292C37.6087 10.292 37.6207 10.3 37.6207 10.316C37.6207 10.364 37.6167 10.412 37.6087 10.46C37.5927 10.508 37.5847 10.56 37.5847 10.616C37.5847 10.984 37.7047 11.264 37.9447 11.456C38.1767 11.648 38.4687 11.744 38.8207 11.744C38.9647 11.744 39.1127 11.728 39.2647 11.696C39.4167 11.664 39.5607 11.62 39.6967 11.564C40.2007 11.348 40.6407 11.044 41.0167 10.652C41.3927 10.26 41.7207 9.816 42.0007 9.32C42.2807 8.824 42.5288 8.316 42.7448 7.796C42.9768 7.228 43.1968 6.668 43.4048 6.116C43.6208 5.556 43.8608 5.008 44.1248 4.472C44.3728 3.976 44.6368 3.604 44.9168 3.356C45.1968 3.108 45.4768 2.984 45.7568 2.984C45.8288 2.984 45.8968 3.004 45.9608 3.044C46.0328 3.084 46.0648 3.148 46.0568 3.236L46.0328 3.572C46.0328 3.596 46.0168 3.608 45.9848 3.608C45.9848 3.608 45.9808 3.608 45.9728 3.608C45.9728 3.608 45.9728 3.604 45.9728 3.596C45.9728 3.5 45.9368 3.436 45.8648 3.404C45.8008 3.364 45.7368 3.344 45.6728 3.344C45.4008 3.344 45.1568 3.44 44.9408 3.632C44.7328 3.816 44.5488 4.056 44.3888 4.352C44.2288 4.648 44.0928 4.96 43.9808 5.288C43.8688 5.608 43.7768 5.904 43.7048 6.176C43.7608 6.128 43.8608 6.028 44.0048 5.876C44.1568 5.724 44.3328 5.56 44.5328 5.384C44.7328 5.208 44.9368 5.056 45.1448 4.928C45.3528 4.8 45.5448 4.736 45.7208 4.736C45.8248 4.736 45.8848 4.784 45.9008 4.88C45.9248 4.968 45.9288 5.052 45.9128 5.132C45.8728 5.428 45.7728 5.748 45.6128 6.092C45.4528 6.436 45.2448 6.764 44.9888 7.076C44.7408 7.38 44.4608 7.628 44.1488 7.82C43.8448 8.012 43.5248 8.108 43.1888 8.108C43.1488 8.108 43.0928 8.104 43.0208 8.096C42.9568 8.096 42.9168 8.088 42.9008 8.072C42.7328 8.576 42.5168 9.092 42.2527 9.62C41.9887 10.148 41.6727 10.624 41.3047 11.048C40.9287 11.48 40.4847 11.804 39.9727 12.02C39.7007 12.14 39.4007 12.2 39.0727 12.2ZM43.3688 7.904C43.4888 7.904 43.6248 7.856 43.7768 7.76C43.9368 7.656 44.0568 7.564 44.1368 7.484C44.2328 7.396 44.3448 7.26 44.4728 7.076C44.6088 6.884 44.7408 6.676 44.8688 6.452C45.0048 6.228 45.1168 6.012 45.2048 5.804C45.2928 5.596 45.3368 5.428 45.3368 5.3C45.3368 5.26 45.3288 5.224 45.3128 5.192C45.2968 5.16 45.2688 5.144 45.2288 5.144C45.1568 5.144 45.0608 5.188 44.9408 5.276C44.8208 5.364 44.6928 5.472 44.5568 5.6C44.4288 5.72 44.3088 5.84 44.1968 5.96C44.0848 6.072 44.0048 6.156 43.9568 6.212C43.8768 6.308 43.7688 6.448 43.6328 6.632C43.4968 6.816 43.3768 7.004 43.2728 7.196C43.1688 7.38 43.1168 7.536 43.1168 7.664C43.1168 7.824 43.2008 7.904 43.3688 7.904ZM46.7273 8.024C46.4873 8.024 46.3233 7.968 46.2353 7.856C46.1473 7.736 46.1033 7.592 46.1033 7.424C46.1033 7.2 46.1513 6.96 46.2473 6.704C46.3513 6.448 46.4353 6.248 46.4993 6.104C46.3953 6.216 46.2953 6.324 46.1993 6.428C46.1033 6.532 46.0353 6.608 45.9953 6.656C45.9713 6.688 45.9513 6.704 45.9353 6.704C45.9193 6.704 45.9113 6.684 45.9113 6.644C45.9113 6.58 45.9313 6.52 45.9713 6.464C46.0833 6.32 46.2113 6.168 46.3553 6.008C46.4993 5.848 46.6393 5.68 46.7753 5.504C46.9353 5.208 47.1113 4.864 47.3033 4.472C47.5033 4.072 47.7073 3.664 47.9153 3.248C48.1313 2.824 48.3393 2.436 48.5393 2.084C48.7473 1.724 48.9313 1.436 49.0913 1.22C49.2273 1.164 49.3553 1.092 49.4753 1.004C49.6033 0.916 49.7273 0.835999 49.8473 0.763999C49.9753 0.684 50.1073 0.644 50.2433 0.644C50.3313 0.644 50.3953 0.668 50.4353 0.715999C50.4833 0.764 50.5153 0.82 50.5313 0.883999C50.5393 0.908 50.5433 0.952 50.5433 1.016C50.5433 1.2 50.4793 1.424 50.3513 1.688C50.2313 1.952 50.0873 2.212 49.9193 2.468C49.7593 2.716 49.6193 2.92 49.4993 3.08C49.1793 3.528 48.8513 3.936 48.5153 4.304C48.1793 4.664 47.8753 4.968 47.6033 5.216C47.3393 5.456 47.1473 5.632 47.0273 5.744C46.9713 5.848 46.9033 5.988 46.8233 6.164C46.7513 6.332 46.6873 6.512 46.6313 6.704C46.5753 6.888 46.5473 7.06 46.5473 7.22C46.5473 7.356 46.5793 7.472 46.6433 7.568C46.7073 7.656 46.8153 7.7 46.9673 7.7C46.9913 7.7 47.0153 7.7 47.0393 7.7C47.0633 7.7 47.0913 7.696 47.1233 7.688C47.2593 7.664 47.4073 7.588 47.5673 7.46C47.7273 7.332 47.8873 7.184 48.0473 7.016C48.2073 6.848 48.3513 6.688 48.4793 6.536C48.5353 6.472 48.5873 6.412 48.6353 6.356C48.6833 6.292 48.7153 6.248 48.7313 6.224C48.7873 6.28 48.7833 6.352 48.7193 6.44C48.6633 6.52 48.6153 6.588 48.5753 6.644C48.5193 6.716 48.4393 6.816 48.3353 6.944C48.2313 7.064 48.1113 7.196 47.9753 7.34C47.8233 7.492 47.6353 7.644 47.4113 7.796C47.1873 7.948 46.9593 8.024 46.7273 8.024ZM47.2313 5.264C47.4793 5.056 47.7913 4.76 48.1673 4.376C48.5513 3.984 48.9273 3.512 49.2953 2.96C49.3353 2.896 49.3993 2.788 49.4873 2.636C49.5833 2.484 49.6793 2.312 49.7753 2.12C49.8793 1.92 49.9673 1.728 50.0393 1.544C50.1113 1.352 50.1473 1.188 50.1473 1.052C50.1473 0.924 50.1113 0.86 50.0393 0.86C49.9513 0.86 49.8353 0.936 49.6913 1.088C49.5233 1.264 49.3313 1.524 49.1153 1.868C48.9073 2.204 48.6873 2.58 48.4553 2.996C48.2233 3.412 47.9993 3.82 47.7833 4.22C47.5753 4.62 47.3913 4.968 47.2313 5.264ZM50.1338 8.036C50.0538 8.036 49.9858 8.02 49.9298 7.988C49.8738 7.956 49.8458 7.896 49.8458 7.808C49.8458 7.696 49.8738 7.568 49.9298 7.424C49.9858 7.28 50.0498 7.14 50.1218 7.004C50.1938 6.86 50.2578 6.744 50.3138 6.656C50.0338 6.952 49.7418 7.232 49.4378 7.496C49.2858 7.624 49.1178 7.744 48.9338 7.856C48.7498 7.968 48.5538 8.024 48.3458 8.024C48.2658 8.024 48.2098 8 48.1778 7.952C48.1458 7.896 48.1298 7.832 48.1298 7.76C48.1298 7.72 48.1338 7.692 48.1418 7.676C48.1818 7.364 48.2818 7.04 48.4418 6.704C48.6018 6.368 48.7978 6.052 49.0298 5.756C49.2618 5.46 49.4978 5.22 49.7378 5.036C50.0098 4.828 50.3098 4.724 50.6378 4.724H52.0178C52.0578 4.724 52.0778 4.74 52.0778 4.772C52.0778 4.836 52.0418 4.868 51.9698 4.868C51.8898 4.868 51.8098 4.92 51.7298 5.024C51.6498 5.12 51.5898 5.2 51.5498 5.264C51.4938 5.352 51.4058 5.5 51.2858 5.708C51.1658 5.916 51.0418 6.144 50.9138 6.392C50.7938 6.632 50.6898 6.856 50.6018 7.064C50.5138 7.272 50.4698 7.424 50.4698 7.52C50.4698 7.632 50.5258 7.688 50.6378 7.688C50.7578 7.688 50.8938 7.632 51.0458 7.52C51.1978 7.408 51.3498 7.272 51.5018 7.112C51.6618 6.944 51.8058 6.78 51.9338 6.62C52.0698 6.452 52.1778 6.32 52.2578 6.224C52.3058 6.272 52.3018 6.34 52.2458 6.428C52.1978 6.508 52.1538 6.572 52.1138 6.62C51.9538 6.828 51.7698 7.044 51.5618 7.268C51.3538 7.484 51.1258 7.668 50.8778 7.82C50.6378 7.964 50.3898 8.036 50.1338 8.036ZM48.8378 7.616C48.9338 7.616 49.0658 7.548 49.2338 7.412C49.4098 7.268 49.5978 7.092 49.7978 6.884C49.9978 6.668 50.1858 6.444 50.3618 6.212C50.5378 5.972 50.6818 5.756 50.7938 5.564C50.9138 5.364 50.9738 5.212 50.9738 5.108C50.9738 5.02 50.9458 4.96 50.8898 4.928C50.8418 4.896 50.7778 4.88 50.6978 4.88C50.5698 4.88 50.4298 4.928 50.2778 5.024C50.1338 5.112 50.0178 5.2 49.9298 5.288C49.8338 5.376 49.7178 5.516 49.5818 5.708C49.4538 5.892 49.3258 6.096 49.1978 6.32C49.0698 6.544 48.9618 6.76 48.8738 6.968C48.7858 7.176 48.7418 7.344 48.7418 7.472C48.7418 7.568 48.7738 7.616 48.8378 7.616ZM52.5091 8.036C52.4291 8.036 52.3611 8.02 52.3051 7.988C52.2491 7.956 52.2211 7.896 52.2211 7.808C52.2211 7.696 52.2491 7.564 52.3051 7.412C52.3691 7.26 52.4371 7.108 52.5091 6.956C52.5811 6.804 52.6411 6.68 52.6891 6.584C52.7291 6.512 52.7811 6.4 52.8451 6.248C52.9171 6.088 52.9891 5.924 53.0611 5.756C53.1411 5.58 53.2051 5.432 53.2531 5.312C53.3091 5.192 53.3371 5.132 53.3371 5.132C53.2651 5.212 53.1691 5.324 53.0491 5.468C52.9371 5.612 52.8131 5.764 52.6771 5.924C52.5491 6.076 52.4291 6.22 52.3171 6.356C52.2131 6.492 52.1371 6.592 52.0891 6.656C52.0651 6.688 52.0451 6.704 52.0291 6.704C52.0131 6.704 52.0051 6.684 52.0051 6.644C52.0051 6.58 52.0251 6.52 52.0651 6.464C52.1611 6.344 52.2771 6.2 52.4131 6.032C52.5491 5.856 52.6851 5.68 52.8211 5.504C52.9651 5.328 53.0891 5.172 53.1931 5.036C53.1291 5.036 53.0451 5.04 52.9411 5.048C52.8451 5.056 52.7571 5.068 52.6771 5.084C52.5971 5.092 52.5531 5.096 52.5451 5.096C52.5051 5.096 52.5091 5.064 52.5571 5C52.6051 4.936 52.6691 4.872 52.7491 4.808C52.8291 4.744 52.8891 4.712 52.9291 4.712C52.9371 4.712 53.0011 4.716 53.1211 4.724C53.2411 4.724 53.3291 4.724 53.3851 4.724C53.5451 4.508 53.7011 4.26 53.8531 3.98C54.0131 3.7 54.1691 3.392 54.3211 3.056C54.3851 3.048 54.4931 3.004 54.6451 2.924C54.8051 2.836 54.9291 2.748 55.0171 2.66C55.0571 2.62 55.0891 2.6 55.1131 2.6C55.1611 2.6 55.1611 2.632 55.1131 2.696C55.0571 2.76 54.9611 2.896 54.8251 3.104C54.6891 3.304 54.5371 3.548 54.3691 3.836C54.2011 4.116 54.0411 4.412 53.8891 4.724H54.8611C54.9491 4.724 54.9931 4.736 54.9931 4.76C54.9931 4.792 54.9331 4.824 54.8131 4.856C54.6771 4.896 54.5331 4.92 54.3811 4.928C54.2371 4.936 54.1011 4.952 53.9731 4.976C53.8531 5 53.7651 5.052 53.7091 5.132C53.6611 5.188 53.5931 5.308 53.5051 5.492C53.4171 5.676 53.3211 5.888 53.2171 6.128C53.1211 6.36 53.0371 6.596 52.9651 6.836C52.8931 7.068 52.8491 7.264 52.8331 7.424V7.472C52.8331 7.536 52.8531 7.588 52.8931 7.628C52.9331 7.668 52.9731 7.688 53.0131 7.688C53.1171 7.688 53.2491 7.624 53.4091 7.496C53.5771 7.368 53.7491 7.216 53.9251 7.04C54.1011 6.856 54.2531 6.688 54.3811 6.536C54.4371 6.472 54.4851 6.412 54.5251 6.356C54.5731 6.3 54.6011 6.264 54.6091 6.248C54.6251 6.28 54.6331 6.304 54.6331 6.32C54.6331 6.368 54.6171 6.42 54.5851 6.476C54.5611 6.532 54.5331 6.58 54.5011 6.62C54.3491 6.82 54.1651 7.032 53.9491 7.256C53.7331 7.472 53.5011 7.656 53.2531 7.808C53.0131 7.96 52.7651 8.036 52.5091 8.036ZM55.092 8.096C54.764 8.096 54.536 8.032 54.408 7.904C54.28 7.776 54.216 7.62 54.216 7.436C54.216 7.204 54.276 6.956 54.396 6.692C54.524 6.428 54.644 6.204 54.756 6.02C54.884 5.828 55.056 5.628 55.272 5.42C55.488 5.212 55.724 5.036 55.98 4.892C56.236 4.748 56.484 4.676 56.724 4.676C56.932 4.676 57.076 4.728 57.156 4.832C57.236 4.928 57.276 5.044 57.276 5.18C57.276 5.428 57.2 5.632 57.048 5.792C56.904 5.952 56.724 6.084 56.508 6.188C56.292 6.284 56.084 6.364 55.884 6.428C55.764 6.46 55.624 6.492 55.464 6.524C55.304 6.556 55.152 6.572 55.008 6.572C54.952 6.716 54.908 6.856 54.876 6.992C54.844 7.128 54.828 7.252 54.828 7.364C54.828 7.5 54.86 7.612 54.924 7.7C54.996 7.788 55.112 7.832 55.272 7.832C55.336 7.832 55.412 7.824 55.5 7.808C55.588 7.792 55.684 7.768 55.788 7.736C56.028 7.656 56.264 7.528 56.496 7.352C56.728 7.176 56.94 6.988 57.132 6.788C57.332 6.58 57.484 6.408 57.588 6.272C57.612 6.296 57.624 6.324 57.624 6.356C57.624 6.396 57.596 6.46 57.54 6.548C57.38 6.772 57.172 7.004 56.916 7.244C56.66 7.484 56.376 7.688 56.064 7.856C55.752 8.016 55.428 8.096 55.092 8.096ZM55.104 6.332C55.208 6.34 55.324 6.34 55.452 6.332C55.588 6.316 55.72 6.288 55.848 6.248C56.176 6.152 56.412 6 56.556 5.792C56.708 5.576 56.784 5.384 56.784 5.216C56.784 5.12 56.764 5.04 56.724 4.976C56.684 4.912 56.62 4.88 56.532 4.88C56.3 4.88 56.092 4.968 55.908 5.144C55.724 5.312 55.564 5.508 55.428 5.732C55.292 5.956 55.184 6.156 55.104 6.332Z" fill="white"/>
</svg>
