<svg width="98" height="12" viewBox="0 0 98 12" fill="none" xmlns="http://www.w3.org/2000/svg">
<path d="M2.076 8.82L2.208 8.628C2.392 8.388 2.52 8.14 2.592 7.884C2.664 7.62 2.7 7.264 2.7 6.816V2.64C2.7 2.296 2.676 2.072 2.628 1.968C2.58 1.856 2.476 1.8 2.316 1.8H1.824C1.56 1.8 1.356 1.828 1.212 1.884C1.076 1.94 0.964 2.036 0.876 2.172C0.796 2.308 0.72 2.508 0.648 2.772L0.588 3.036L0.216 2.904V0.972L0.396 0.827999L0.588 0.972C0.78 1.124 1.188 1.2 1.812 1.2H4.656C5.288 1.2 5.696 1.124 5.88 0.972L6.072 0.827999L6.252 0.972V2.904L5.88 3.036L5.82 2.772C5.716 2.38 5.588 2.12 5.436 1.992C5.284 1.864 5.02 1.8 4.644 1.8H4.14C3.988 1.8 3.884 1.856 3.828 1.968C3.78 2.08 3.756 2.304 3.756 2.64V7.56C3.756 7.896 3.8 8.128 3.888 8.256C3.984 8.376 4.176 8.48 4.464 8.568L4.728 8.628L4.596 9H2.208L2.076 8.82ZM7.80347 9.156C7.45147 9.156 7.12347 9.056 6.81947 8.856C6.52347 8.648 6.28347 8.348 6.09947 7.956C5.92347 7.556 5.83547 7.072 5.83547 6.504C5.83547 5.568 6.08747 4.828 6.59147 4.284C7.10347 3.74 7.79147 3.468 8.65547 3.468C8.94347 3.468 9.33547 3.512 9.83147 3.6C10.1995 3.664 10.5315 3.708 10.8275 3.732L10.9715 3.864L10.8155 4.068C10.7595 4.164 10.7195 4.24 10.6955 4.296C10.6795 4.344 10.6715 4.412 10.6715 4.5V8.04C10.6715 8.264 10.7875 8.376 11.0195 8.376C11.1955 8.376 11.3755 8.312 11.5595 8.184L11.7635 8.46C11.5715 8.676 11.3675 8.848 11.1515 8.976C10.9355 9.096 10.7395 9.156 10.5635 9.156C10.2595 9.156 10.0395 9.068 9.90347 8.892C9.76747 8.708 9.69947 8.412 9.69947 8.004C9.41147 8.428 9.11147 8.728 8.79947 8.904C8.49547 9.072 8.16347 9.156 7.80347 9.156ZM8.22347 8.304C8.83147 8.304 9.32347 7.976 9.69947 7.32V4.38C9.38747 4.172 9.03547 4.068 8.64347 4.068C8.12347 4.068 7.71547 4.264 7.41947 4.656C7.13147 5.04 6.98747 5.588 6.98747 6.3C6.98747 6.988 7.10347 7.496 7.33547 7.824C7.57547 8.144 7.87147 8.304 8.22347 8.304ZM16.8623 9.156C16.6383 9.156 16.4543 9.112 16.3103 9.024C16.1743 8.944 16.0543 8.832 15.9503 8.688C15.8543 8.536 15.7263 8.308 15.5663 8.004L14.7503 6.468L14.6543 6.432C14.5183 6.4 14.4503 6.328 14.4503 6.216C14.4503 6.168 14.4623 6.12 14.4863 6.072C14.5183 6.024 14.5623 6 14.6183 6C14.6423 6 14.7143 6.02 14.8343 6.06C14.9543 6.092 15.1103 6.108 15.3023 6.108C15.6943 6.108 16.0023 5.992 16.2263 5.76C16.4503 5.528 16.5623 5.264 16.5623 4.968C16.5623 4.752 16.4983 4.572 16.3703 4.428C16.2423 4.276 16.0583 4.2 15.8183 4.2C15.2823 4.2 14.8543 4.48 14.5343 5.04C14.2223 5.6 14.0663 6.34 14.0663 7.26C14.0663 7.604 14.0903 7.88 14.1383 8.088C14.1943 8.296 14.2903 8.488 14.4263 8.664L14.5583 8.832L14.4263 9H12.5183L12.3863 8.664L12.6263 8.604C12.8103 8.572 12.9303 8.5 12.9863 8.388C13.0503 8.268 13.0823 8.068 13.0823 7.788V1.668C13.0823 1.58 13.0663 1.52 13.0343 1.488C13.0023 1.448 12.9463 1.428 12.8663 1.428H12.3743L12.2903 1.152C12.4983 0.96 12.7343 0.804 12.9983 0.684C13.2703 0.556 13.5063 0.491999 13.7063 0.491999C13.8103 0.491999 13.8943 0.523999 13.9583 0.588C14.0303 0.652 14.0663 0.736 14.0663 0.84V5.088C14.2503 4.608 14.5223 4.22 14.8823 3.924C15.2503 3.62 15.6383 3.468 16.0463 3.468C16.5263 3.468 16.8943 3.604 17.1503 3.876C17.4143 4.148 17.5463 4.48 17.5463 4.872C17.5463 5.28 17.4023 5.648 17.1143 5.976C16.8263 6.296 16.4343 6.484 15.9383 6.54L16.7663 8.16C16.8783 8.36 17.0303 8.46 17.2223 8.46C17.3263 8.46 17.4303 8.436 17.5343 8.388C17.6383 8.332 17.7263 8.264 17.7983 8.184L18.0383 8.46C17.6943 8.924 17.3023 9.156 16.8623 9.156ZM21.2341 9.156C20.7301 9.156 20.2901 9.04 19.9141 8.808C19.5381 8.576 19.2461 8.252 19.0381 7.836C18.8301 7.412 18.7261 6.924 18.7261 6.372C18.7261 5.796 18.8421 5.288 19.0741 4.848C19.3061 4.408 19.6341 4.068 20.0581 3.828C20.4901 3.588 20.9861 3.468 21.5461 3.468C22.1381 3.468 22.5941 3.624 22.9141 3.936C23.2421 4.248 23.4061 4.624 23.4061 5.064C23.4061 5.368 23.3221 5.66 23.1541 5.94C22.9941 6.22 22.7541 6.448 22.4341 6.624C22.1221 6.8 21.7541 6.888 21.3301 6.888C21.0901 6.888 20.8301 6.848 20.5501 6.768C20.2701 6.68 20.1301 6.552 20.1301 6.384C20.1301 6.32 20.1461 6.264 20.1781 6.216C20.2101 6.168 20.2461 6.144 20.2861 6.144C20.3101 6.144 20.3821 6.168 20.5021 6.216C20.6301 6.256 20.7941 6.276 20.9941 6.276C21.4341 6.276 21.7741 6.156 22.0141 5.916C22.2541 5.676 22.3741 5.388 22.3741 5.052C22.3741 4.764 22.2781 4.516 22.0861 4.308C21.9021 4.1 21.6541 3.996 21.3421 3.996C20.8701 3.996 20.5021 4.204 20.2381 4.62C19.9821 5.028 19.8541 5.612 19.8541 6.372C19.8541 7.02 19.9901 7.528 20.2621 7.896C20.5421 8.256 20.9421 8.436 21.4621 8.436C22.1021 8.436 22.6301 8.228 23.0461 7.812C23.0701 7.788 23.1021 7.776 23.1421 7.776C23.2061 7.776 23.2701 7.808 23.3341 7.872C23.4061 7.936 23.4421 8.004 23.4421 8.076C23.4421 8.1 23.4341 8.124 23.4181 8.148C23.4021 8.164 23.3941 8.176 23.3941 8.184C23.1221 8.504 22.7981 8.748 22.4221 8.916C22.0541 9.076 21.6581 9.156 21.2341 9.156ZM30.1394 9.156C29.7874 9.156 29.4594 9.056 29.1554 8.856C28.8594 8.648 28.6194 8.348 28.4354 7.956C28.2594 7.556 28.1714 7.072 28.1714 6.504C28.1714 5.568 28.4234 4.828 28.9274 4.284C29.4394 3.74 30.1274 3.468 30.9914 3.468C31.2794 3.468 31.6714 3.512 32.1674 3.6C32.5354 3.664 32.8674 3.708 33.1634 3.732L33.3074 3.864L33.1514 4.068C33.0954 4.164 33.0554 4.24 33.0314 4.296C33.0154 4.344 33.0074 4.412 33.0074 4.5V8.04C33.0074 8.264 33.1234 8.376 33.3554 8.376C33.5314 8.376 33.7114 8.312 33.8954 8.184L34.0994 8.46C33.9074 8.676 33.7034 8.848 33.4874 8.976C33.2714 9.096 33.0754 9.156 32.8994 9.156C32.5954 9.156 32.3754 9.068 32.2394 8.892C32.1034 8.708 32.0354 8.412 32.0354 8.004C31.7474 8.428 31.4474 8.728 31.1354 8.904C30.8314 9.072 30.4994 9.156 30.1394 9.156ZM30.5594 8.304C31.1674 8.304 31.6594 7.976 32.0354 7.32V4.38C31.7234 4.172 31.3714 4.068 30.9794 4.068C30.4594 4.068 30.0514 4.264 29.7554 4.656C29.4674 5.04 29.3234 5.588 29.3234 6.3C29.3234 6.988 29.4394 7.496 29.6714 7.824C29.9114 8.144 30.2074 8.304 30.5594 8.304ZM39.7982 9.156C39.5022 9.156 39.2902 9.068 39.1622 8.892C39.0342 8.708 38.9702 8.412 38.9702 8.004V5.412C38.9702 5.044 38.8902 4.768 38.7302 4.584C38.5702 4.392 38.3342 4.296 38.0222 4.296C37.7102 4.296 37.4342 4.42 37.1942 4.668C36.9622 4.916 36.7822 5.264 36.6542 5.712C36.5262 6.16 36.4622 6.676 36.4622 7.26C36.4622 7.596 36.4862 7.868 36.5342 8.076C36.5902 8.284 36.6822 8.48 36.8102 8.664L36.9422 8.832L36.8102 9H34.9022L34.7942 8.664L34.9982 8.604C35.1902 8.572 35.3142 8.5 35.3702 8.388C35.4342 8.268 35.4662 8.068 35.4662 7.788V4.74C35.4662 4.652 35.4502 4.592 35.4182 4.56C35.3862 4.52 35.3302 4.5 35.2502 4.5H34.7822L34.6742 4.212C34.8822 4.02 35.1222 3.864 35.3942 3.744C35.6662 3.624 35.9062 3.564 36.1142 3.564C36.2182 3.564 36.3022 3.596 36.3662 3.66C36.4302 3.724 36.4622 3.804 36.4622 3.9V5.088C36.6462 4.616 36.9262 4.228 37.3022 3.924C37.6782 3.62 38.0742 3.468 38.4902 3.468C38.9942 3.468 39.3622 3.624 39.5942 3.936C39.8342 4.248 39.9542 4.74 39.9542 5.412V8.04C39.9542 8.288 40.0622 8.412 40.2782 8.412C40.4542 8.412 40.6342 8.336 40.8182 8.184L41.0222 8.46C40.8382 8.668 40.6342 8.836 40.4102 8.964C40.1862 9.092 39.9822 9.156 39.7982 9.156ZM44.3706 9.156C43.5546 9.156 42.9066 8.9 42.4266 8.388C41.9466 7.868 41.7066 7.172 41.7066 6.3C41.7066 5.428 41.9466 4.74 42.4266 4.236C42.9066 3.724 43.5546 3.468 44.3706 3.468C44.9066 3.468 45.3746 3.584 45.7746 3.816C46.1746 4.048 46.4826 4.376 46.6986 4.8C46.9146 5.224 47.0226 5.724 47.0226 6.3C47.0226 6.876 46.9106 7.38 46.6866 7.812C46.4706 8.244 46.1626 8.576 45.7626 8.808C45.3626 9.04 44.8986 9.156 44.3706 9.156ZM44.3466 8.568C44.8026 8.568 45.1706 8.364 45.4506 7.956C45.7386 7.54 45.8826 6.996 45.8826 6.324C45.8826 5.98 45.8346 5.636 45.7386 5.292C45.6426 4.94 45.4826 4.644 45.2586 4.404C45.0426 4.156 44.7586 4.032 44.4066 4.032C43.9346 4.032 43.5546 4.24 43.2666 4.656C42.9866 5.072 42.8466 5.624 42.8466 6.312C42.8466 7 42.9786 7.548 43.2426 7.956C43.5146 8.364 43.8826 8.568 44.3466 8.568ZM49.5238 9.156C49.2278 9.156 48.9958 9.064 48.8278 8.88C48.6598 8.688 48.5758 8.428 48.5758 8.1V4.272H47.6278C47.6278 4.08 47.6438 3.956 47.6758 3.9C47.7078 3.836 47.7798 3.788 47.8918 3.756C48.2758 3.66 48.5478 3.5 48.7078 3.276C48.8678 3.052 48.9878 2.756 49.0678 2.388C49.0838 2.276 49.1198 2.208 49.1758 2.184C49.2398 2.152 49.3758 2.136 49.5838 2.136V3.6H50.9878C50.9878 3.752 50.9638 3.888 50.9158 4.008C50.8758 4.128 50.8198 4.216 50.7478 4.272H49.5838V7.788C49.5838 8.012 49.6118 8.172 49.6678 8.268C49.7318 8.356 49.8398 8.4 49.9918 8.4C50.2078 8.4 50.4518 8.284 50.7238 8.052L50.9278 8.34C50.7438 8.58 50.5198 8.776 50.2558 8.928C49.9918 9.08 49.7478 9.156 49.5238 9.156ZM56.7072 9.18C56.4112 9.18 56.1992 9.088 56.0712 8.904C55.9432 8.72 55.8792 8.424 55.8792 8.016V5.436C55.8792 5.06 55.8032 4.776 55.6512 4.584C55.5072 4.392 55.2712 4.296 54.9432 4.296C54.6312 4.296 54.3552 4.42 54.1152 4.668C53.8752 4.916 53.6872 5.264 53.5512 5.712C53.4232 6.16 53.3592 6.676 53.3592 7.26C53.3592 7.596 53.3832 7.868 53.4312 8.076C53.4872 8.284 53.5832 8.48 53.7192 8.664L53.8512 8.832L53.7192 9H51.8112L51.6792 8.664L51.9192 8.604C52.1032 8.572 52.2232 8.5 52.2792 8.388C52.3432 8.268 52.3752 8.068 52.3752 7.788V1.668C52.3752 1.58 52.3592 1.52 52.3272 1.488C52.2952 1.448 52.2392 1.428 52.1592 1.428H51.6672L51.5832 1.152C51.7912 0.96 52.0272 0.804 52.2912 0.684C52.5632 0.556 52.7992 0.491999 52.9992 0.491999C53.1032 0.491999 53.1872 0.523999 53.2512 0.588C53.3232 0.652 53.3592 0.736 53.3592 0.84V5.088C53.5432 4.616 53.8272 4.228 54.2112 3.924C54.5952 3.62 54.9952 3.468 55.4112 3.468C55.9392 3.468 56.3112 3.624 56.5272 3.936C56.7512 4.24 56.8632 4.74 56.8632 5.436V8.064C56.8632 8.312 56.9672 8.436 57.1752 8.436C57.3432 8.436 57.5232 8.364 57.7152 8.22L57.9432 8.484C57.7432 8.7 57.5312 8.872 57.3072 9C57.0912 9.12 56.8912 9.18 56.7072 9.18ZM61.1247 9.156C60.6207 9.156 60.1807 9.04 59.8047 8.808C59.4287 8.576 59.1367 8.252 58.9287 7.836C58.7207 7.412 58.6167 6.924 58.6167 6.372C58.6167 5.796 58.7327 5.288 58.9647 4.848C59.1967 4.408 59.5247 4.068 59.9487 3.828C60.3807 3.588 60.8767 3.468 61.4367 3.468C62.0287 3.468 62.4847 3.624 62.8047 3.936C63.1327 4.248 63.2967 4.624 63.2967 5.064C63.2967 5.368 63.2127 5.66 63.0447 5.94C62.8847 6.22 62.6447 6.448 62.3247 6.624C62.0127 6.8 61.6447 6.888 61.2207 6.888C60.9807 6.888 60.7207 6.848 60.4407 6.768C60.1607 6.68 60.0207 6.552 60.0207 6.384C60.0207 6.32 60.0367 6.264 60.0687 6.216C60.1007 6.168 60.1367 6.144 60.1767 6.144C60.2007 6.144 60.2727 6.168 60.3927 6.216C60.5207 6.256 60.6847 6.276 60.8847 6.276C61.3247 6.276 61.6647 6.156 61.9047 5.916C62.1447 5.676 62.2647 5.388 62.2647 5.052C62.2647 4.764 62.1687 4.516 61.9767 4.308C61.7927 4.1 61.5447 3.996 61.2327 3.996C60.7607 3.996 60.3927 4.204 60.1287 4.62C59.8727 5.028 59.7447 5.612 59.7447 6.372C59.7447 7.02 59.8807 7.528 60.1527 7.896C60.4327 8.256 60.8327 8.436 61.3527 8.436C61.9927 8.436 62.5207 8.228 62.9367 7.812C62.9607 7.788 62.9927 7.776 63.0327 7.776C63.0967 7.776 63.1607 7.808 63.2247 7.872C63.2967 7.936 63.3327 8.004 63.3327 8.076C63.3327 8.1 63.3247 8.124 63.3087 8.148C63.2927 8.164 63.2847 8.176 63.2847 8.184C63.0127 8.504 62.6887 8.748 62.3127 8.916C61.9447 9.076 61.5487 9.156 61.1247 9.156ZM64.4309 8.664L64.6349 8.604C64.8269 8.572 64.9509 8.5 65.0069 8.388C65.0709 8.268 65.1029 8.068 65.1029 7.788V4.74C65.1029 4.652 65.0869 4.592 65.0549 4.56C65.0229 4.52 64.9669 4.5 64.8869 4.5H64.4189L64.3109 4.212C64.5189 4.02 64.7589 3.864 65.0309 3.744C65.3029 3.624 65.5429 3.564 65.7509 3.564C65.8549 3.564 65.9389 3.596 66.0029 3.66C66.0669 3.724 66.0989 3.804 66.0989 3.9V5.088H66.1589C66.2869 4.6 66.4789 4.208 66.7349 3.912C66.9989 3.616 67.2829 3.468 67.5869 3.468C67.8909 3.468 68.1389 3.568 68.3309 3.768C68.5309 3.96 68.6309 4.228 68.6309 4.572C68.6309 4.844 68.5309 5.072 68.3309 5.256C68.1309 5.44 67.8789 5.532 67.5749 5.532C67.4309 5.532 67.3589 5.496 67.3589 5.424C67.3589 5.4 67.3869 5.344 67.4429 5.256C67.4989 5.168 67.5469 5.08 67.5869 4.992C67.6269 4.904 67.6469 4.8 67.6469 4.68C67.6469 4.544 67.6149 4.44 67.5509 4.368C67.4869 4.288 67.4029 4.248 67.2989 4.248C67.1309 4.248 66.9549 4.352 66.7709 4.56C66.5869 4.768 66.4269 5.1 66.2909 5.556C66.1629 6.012 66.0989 6.592 66.0989 7.296C66.0989 7.624 66.1229 7.892 66.1709 8.1C66.2269 8.3 66.3189 8.488 66.4469 8.664L66.5789 8.832L66.4469 9H64.5389L64.4309 8.664ZM72.9758 11.736L73.0958 11.556C73.2318 11.372 73.3278 11.176 73.3838 10.968C73.4398 10.768 73.4678 10.496 73.4678 10.152V4.86C73.4678 4.756 73.4518 4.676 73.4198 4.62C73.3878 4.564 73.3278 4.524 73.2398 4.5L72.6758 4.368V4.032C72.7878 3.928 73.0038 3.828 73.3238 3.732C73.6438 3.636 73.9238 3.588 74.1638 3.588C74.3478 3.588 74.4398 3.756 74.4398 4.092V4.14C74.9038 3.692 75.4278 3.468 76.0118 3.468C76.4518 3.468 76.8478 3.58 77.1998 3.804C77.5518 4.028 77.8238 4.34 78.0158 4.74C78.2158 5.132 78.3158 5.584 78.3158 6.096C78.3158 6.672 78.2118 7.196 78.0038 7.668C77.7958 8.132 77.5078 8.496 77.1398 8.76C76.7798 9.024 76.3758 9.156 75.9278 9.156C75.4958 9.156 75.1358 9.056 74.8478 8.856C74.7758 8.816 74.7398 8.752 74.7398 8.664C74.7398 8.584 74.7518 8.52 74.7758 8.472C74.8078 8.416 74.8518 8.388 74.9078 8.388C74.9318 8.388 75.0078 8.42 75.1358 8.484C75.2718 8.54 75.4478 8.568 75.6638 8.568C76.1118 8.568 76.4718 8.356 76.7438 7.932C77.0238 7.508 77.1638 6.964 77.1638 6.3C77.1638 5.676 77.0238 5.168 76.7438 4.776C76.4718 4.376 76.1078 4.176 75.6518 4.176C75.4118 4.176 75.1958 4.208 75.0038 4.272C74.8118 4.336 74.6238 4.444 74.4398 4.596V10.692C74.4398 10.972 74.4678 11.168 74.5238 11.28C74.5878 11.392 74.7118 11.468 74.8958 11.508L75.1118 11.556L75.0158 11.88H73.0958L72.9758 11.736ZM80.7166 9.156C80.4126 9.156 80.1926 9.068 80.0566 8.892C79.9286 8.708 79.8646 8.412 79.8646 8.004V1.668C79.8646 1.58 79.8486 1.52 79.8166 1.488C79.7846 1.448 79.7286 1.428 79.6486 1.428H79.1806L79.0726 1.152C79.2806 0.96 79.5206 0.804 79.7926 0.684C80.0646 0.556 80.3086 0.491999 80.5246 0.491999C80.6286 0.491999 80.7126 0.523999 80.7766 0.588C80.8406 0.652 80.8726 0.736 80.8726 0.84L80.8486 8.04C80.8486 8.16 80.8766 8.252 80.9326 8.316C80.9886 8.38 81.0686 8.412 81.1726 8.412C81.3726 8.412 81.5526 8.336 81.7126 8.184L81.9286 8.46C81.7446 8.668 81.5406 8.836 81.3166 8.964C81.0926 9.092 80.8926 9.156 80.7166 9.156ZM84.5261 9.156C84.1741 9.156 83.8461 9.056 83.5421 8.856C83.2461 8.648 83.0061 8.348 82.8221 7.956C82.6461 7.556 82.5581 7.072 82.5581 6.504C82.5581 5.568 82.8101 4.828 83.3141 4.284C83.8261 3.74 84.5141 3.468 85.3781 3.468C85.6661 3.468 86.0581 3.512 86.5541 3.6C86.9221 3.664 87.2541 3.708 87.5501 3.732L87.6941 3.864L87.5381 4.068C87.4821 4.164 87.4421 4.24 87.4181 4.296C87.4021 4.344 87.3941 4.412 87.3941 4.5V8.04C87.3941 8.264 87.5101 8.376 87.7421 8.376C87.9181 8.376 88.0981 8.312 88.2821 8.184L88.4861 8.46C88.2941 8.676 88.0901 8.848 87.8741 8.976C87.6581 9.096 87.4621 9.156 87.2861 9.156C86.9821 9.156 86.7621 9.068 86.6261 8.892C86.4901 8.708 86.4221 8.412 86.4221 8.004C86.1341 8.428 85.8341 8.728 85.5221 8.904C85.2181 9.072 84.8861 9.156 84.5261 9.156ZM84.9461 8.304C85.5541 8.304 86.0461 7.976 86.4221 7.32V4.38C86.1101 4.172 85.7581 4.068 85.3661 4.068C84.8461 4.068 84.4381 4.264 84.1421 4.656C83.8541 5.04 83.7101 5.588 83.7101 6.3C83.7101 6.988 83.8261 7.496 84.0581 7.824C84.2981 8.144 84.5941 8.304 84.9461 8.304ZM90.6449 9.156C90.3489 9.156 90.1169 9.064 89.9489 8.88C89.7809 8.688 89.6969 8.428 89.6969 8.1V4.272H88.7489C88.7489 4.08 88.7649 3.956 88.7969 3.9C88.8289 3.836 88.9009 3.788 89.0129 3.756C89.3969 3.66 89.6689 3.5 89.8289 3.276C89.9889 3.052 90.1089 2.756 90.1889 2.388C90.2049 2.276 90.2409 2.208 90.2969 2.184C90.3609 2.152 90.4969 2.136 90.7049 2.136V3.6H92.1089C92.1089 3.752 92.0849 3.888 92.0369 4.008C91.9969 4.128 91.9409 4.216 91.8689 4.272H90.7049V7.788C90.7049 8.012 90.7329 8.172 90.7889 8.268C90.8529 8.356 90.9609 8.4 91.1129 8.4C91.3289 8.4 91.5729 8.284 91.8449 8.052L92.0489 8.34C91.8649 8.58 91.6409 8.776 91.3769 8.928C91.1129 9.08 90.8689 9.156 90.6449 9.156ZM95.3083 9.156C94.8043 9.156 94.3643 9.04 93.9883 8.808C93.6123 8.576 93.3203 8.252 93.1123 7.836C92.9043 7.412 92.8003 6.924 92.8003 6.372C92.8003 5.796 92.9163 5.288 93.1483 4.848C93.3803 4.408 93.7083 4.068 94.1323 3.828C94.5643 3.588 95.0603 3.468 95.6203 3.468C96.2123 3.468 96.6683 3.624 96.9883 3.936C97.3163 4.248 97.4803 4.624 97.4803 5.064C97.4803 5.368 97.3963 5.66 97.2283 5.94C97.0683 6.22 96.8283 6.448 96.5083 6.624C96.1963 6.8 95.8283 6.888 95.4043 6.888C95.1643 6.888 94.9043 6.848 94.6243 6.768C94.3443 6.68 94.2043 6.552 94.2043 6.384C94.2043 6.32 94.2203 6.264 94.2523 6.216C94.2843 6.168 94.3203 6.144 94.3603 6.144C94.3843 6.144 94.4563 6.168 94.5763 6.216C94.7043 6.256 94.8683 6.276 95.0683 6.276C95.5083 6.276 95.8483 6.156 96.0883 5.916C96.3283 5.676 96.4483 5.388 96.4483 5.052C96.4483 4.764 96.3523 4.516 96.1603 4.308C95.9763 4.1 95.7283 3.996 95.4163 3.996C94.9443 3.996 94.5763 4.204 94.3123 4.62C94.0563 5.028 93.9283 5.612 93.9283 6.372C93.9283 7.02 94.0643 7.528 94.3363 7.896C94.6163 8.256 95.0163 8.436 95.5363 8.436C96.1763 8.436 96.7043 8.228 97.1203 7.812C97.1443 7.788 97.1763 7.776 97.2163 7.776C97.2803 7.776 97.3443 7.808 97.4083 7.872C97.4803 7.936 97.5163 8.004 97.5163 8.076C97.5163 8.1 97.5083 8.124 97.4923 8.148C97.4763 8.164 97.4683 8.176 97.4683 8.184C97.1963 8.504 96.8723 8.748 96.4963 8.916C96.1283 9.076 95.7323 9.156 95.3083 9.156Z" fill="white"/>
</svg>
