<svg width="63" height="13" viewBox="0 0 63 13" fill="none" xmlns="http://www.w3.org/2000/svg">
<path d="M2.656 4.548C2.344 4.548 2.056 4.464 1.792 4.296C1.528 4.128 1.316 3.908 1.156 3.636C0.996 3.356 0.916 3.064 0.916 2.76C0.916 2.36 1.012 2.004 1.204 1.692C1.404 1.38 1.66 1.116 1.972 0.9C2.292 0.684 2.64 0.52 3.016 0.408C3.392 0.296 3.756 0.24 4.108 0.24C4.524 0.24 4.924 0.296 5.308 0.408C5.692 0.52 6.064 0.66 6.424 0.827999C6.784 0.996 7.128 1.168 7.456 1.344C7.784 1.512 8.096 1.652 8.392 1.764C8.688 1.876 8.964 1.932 9.22 1.932C9.556 1.932 9.792 1.836 9.928 1.644C10.064 1.452 10.132 1.212 10.132 0.924V0.887999C10.132 0.847999 10.136 0.807999 10.144 0.767999C10.16 0.72 10.192 0.696 10.24 0.696C10.32 0.696 10.364 0.748 10.372 0.852C10.388 0.956 10.396 1.036 10.396 1.092C10.396 1.332 10.332 1.532 10.204 1.692C10.076 1.844 9.912 1.96 9.712 2.04C9.512 2.112 9.304 2.148 9.088 2.148C8.768 2.148 8.456 2.096 8.152 1.992C7.856 1.888 7.556 1.76 7.252 1.608C6.956 1.456 6.652 1.308 6.34 1.164C6.028 1.012 5.696 0.883999 5.344 0.779999C4.992 0.676 4.612 0.624 4.204 0.624C3.908 0.624 3.596 0.672 3.268 0.767999C2.94 0.864 2.632 1.004 2.344 1.188C2.056 1.372 1.824 1.6 1.648 1.872C1.472 2.136 1.384 2.44 1.384 2.784C1.384 3.024 1.448 3.26 1.576 3.492C1.704 3.724 1.876 3.916 2.092 4.068C2.308 4.22 2.54 4.296 2.788 4.296C2.94 4.296 3.068 4.268 3.172 4.212C3.284 4.156 3.372 4.104 3.436 4.056C3.508 4 3.564 3.972 3.604 3.972C3.652 3.972 3.676 3.996 3.676 4.044C3.676 4.14 3.604 4.228 3.46 4.308C3.324 4.38 3.176 4.44 3.016 4.488C2.856 4.528 2.736 4.548 2.656 4.548ZM5.128 9.132C4.856 9.132 4.644 9.068 4.492 8.94C4.34 8.804 4.232 8.632 4.168 8.424C4.112 8.216 4.084 7.996 4.084 7.764C4.084 7.34 4.124 6.856 4.204 6.312C4.292 5.76 4.416 5.2 4.576 4.632C4.744 4.064 4.944 3.532 5.176 3.036C5.416 2.532 5.684 2.124 5.98 1.812C6.036 1.748 6.112 1.716 6.208 1.716C6.264 1.716 6.328 1.732 6.4 1.764C6.472 1.788 6.512 1.832 6.52 1.896L6.484 1.992C6.388 2.144 6.284 2.288 6.172 2.424C6.06 2.56 5.956 2.708 5.86 2.868C5.444 3.564 5.1 4.328 4.828 5.16C4.564 5.984 4.432 6.808 4.432 7.632C4.432 7.792 4.44 7.96 4.456 8.136C4.472 8.304 4.52 8.456 4.6 8.592C4.68 8.728 4.812 8.824 4.996 8.88C5.036 8.888 5.08 8.904 5.128 8.928C5.184 8.952 5.212 8.992 5.212 9.048C5.212 9.104 5.184 9.132 5.128 9.132ZM7.28922 9.336C7.15322 9.336 7.05322 9.268 6.98922 9.132C6.92522 9.004 6.88522 8.856 6.86922 8.688C6.85322 8.52 6.84522 8.392 6.84522 8.304C6.84522 8 6.87322 7.68 6.92922 7.344C6.98522 7 7.05722 6.68 7.14522 6.384C7.18522 6.248 7.25722 6.052 7.36122 5.796C7.46522 5.532 7.58922 5.264 7.73322 4.992C7.88522 4.72 8.04522 4.492 8.21322 4.308C8.38922 4.116 8.56522 4.02 8.74122 4.02C8.87722 4.02 9.02522 4.08 9.18522 4.2C9.34522 4.32 9.42522 4.452 9.42522 4.596C9.42522 4.652 9.40522 4.7 9.36522 4.74C9.37322 4.732 9.39322 4.728 9.42522 4.728C9.57722 4.728 9.65322 4.808 9.65322 4.968C9.65322 5.152 9.62522 5.372 9.56922 5.628C9.52122 5.884 9.46922 6.156 9.41322 6.444C9.35722 6.724 9.32922 6.996 9.32922 7.26C9.32922 7.356 9.33722 7.472 9.35322 7.608C9.36922 7.736 9.40522 7.852 9.46122 7.956C9.52522 8.06 9.62522 8.112 9.76122 8.112C9.88922 8.112 10.0252 8.044 10.1692 7.908C10.3132 7.772 10.4532 7.604 10.5892 7.404C10.7252 7.204 10.8532 7.004 10.9732 6.804C11.0932 6.604 11.1932 6.436 11.2732 6.3C11.3612 6.164 11.4212 6.096 11.4532 6.096C11.5092 6.096 11.5372 6.132 11.5372 6.204C11.5372 6.3 11.4932 6.44 11.4052 6.624C11.3252 6.8 11.2172 6.996 11.0812 7.212C10.9452 7.42 10.7932 7.624 10.6252 7.824C10.4652 8.016 10.3012 8.176 10.1332 8.304C9.97322 8.424 9.82922 8.484 9.70122 8.484C9.49322 8.484 9.33322 8.4 9.22122 8.232C9.11722 8.056 9.04522 7.848 9.00522 7.608C8.97322 7.368 8.95722 7.144 8.95722 6.936C8.95722 6.864 8.95722 6.796 8.95722 6.732C8.95722 6.668 8.96122 6.612 8.96922 6.564C8.92122 6.676 8.85322 6.844 8.76522 7.068C8.67722 7.284 8.57322 7.524 8.45322 7.788C8.34122 8.044 8.21722 8.292 8.08122 8.532C7.95322 8.764 7.82122 8.956 7.68522 9.108C7.54922 9.26 7.41722 9.336 7.28922 9.336ZM7.38522 8.832C7.48922 8.832 7.60522 8.736 7.73322 8.544C7.86122 8.352 7.99322 8.108 8.12922 7.812C8.27322 7.508 8.40922 7.184 8.53722 6.84C8.66522 6.496 8.78122 6.172 8.88522 5.868C8.99722 5.556 9.08922 5.3 9.16122 5.1C9.23322 4.892 9.28122 4.78 9.30522 4.764L9.23322 4.776C9.17722 4.776 9.13322 4.748 9.10122 4.692C9.06922 4.628 9.02922 4.568 8.98122 4.512C8.93322 4.456 8.85322 4.428 8.74122 4.428C8.59722 4.428 8.45722 4.512 8.32122 4.68C8.18522 4.848 8.05322 5.052 7.92522 5.292C7.80522 5.524 7.70122 5.752 7.61322 5.976C7.53322 6.2 7.47722 6.368 7.44522 6.48C7.28522 7.032 7.20522 7.6 7.20522 8.184C7.20522 8.216 7.20522 8.288 7.20522 8.4C7.21322 8.504 7.22922 8.604 7.25322 8.7C7.28522 8.788 7.32922 8.832 7.38522 8.832ZM11.5002 9.24C11.4202 9.24 11.3562 9.176 11.3082 9.048C11.2602 8.928 11.2242 8.78 11.2002 8.604C11.1762 8.428 11.1602 8.256 11.1522 8.088C11.1522 7.92 11.1522 7.792 11.1522 7.704C11.1522 7.384 11.1642 7.012 11.1882 6.588C11.2202 6.164 11.2602 5.716 11.3082 5.244C11.3642 4.772 11.4322 4.304 11.5122 3.84C11.5922 3.376 11.6842 2.944 11.7882 2.544C11.8922 2.144 12.0082 1.8 12.1362 1.512C12.1922 1.376 12.2882 1.308 12.4242 1.308C12.4802 1.308 12.5282 1.324 12.5682 1.356C12.6082 1.388 12.6282 1.436 12.6282 1.5C12.6282 1.516 12.6242 1.54 12.6162 1.572C12.6082 1.596 12.6002 1.616 12.5922 1.632C12.4002 2.168 12.2122 2.708 12.0282 3.252C11.8442 3.788 11.7162 4.34 11.6442 4.908C11.5962 5.284 11.5482 5.668 11.5002 6.06C11.4602 6.452 11.4402 6.84 11.4402 7.224C11.4402 7.328 11.4442 7.432 11.4522 7.536C11.4602 7.632 11.4762 7.732 11.5002 7.836C11.5402 7.516 11.6082 7.2 11.7042 6.888C11.8082 6.576 11.9002 6.268 11.9802 5.964C11.9002 5.86 11.8602 5.728 11.8602 5.568C11.8602 5.488 11.8842 5.392 11.9322 5.28C11.9802 5.16 12.0602 5.128 12.1722 5.184C12.1962 5.12 12.2362 5.008 12.2922 4.848C12.3562 4.688 12.4322 4.512 12.5202 4.32C12.6082 4.12 12.7002 3.928 12.7962 3.744C12.8922 3.56 12.9882 3.408 13.0842 3.288C13.1882 3.168 13.2802 3.108 13.3602 3.108C13.4962 3.108 13.5922 3.156 13.6482 3.252C13.7042 3.348 13.7402 3.464 13.7562 3.6C13.7722 3.728 13.7802 3.84 13.7802 3.936C13.7802 4.088 13.7602 4.3 13.7202 4.572C13.6882 4.836 13.6282 5.112 13.5402 5.4C13.4602 5.68 13.3482 5.92 13.2042 6.12C13.0682 6.312 12.8922 6.408 12.6762 6.408C12.6202 6.408 12.5762 6.404 12.5442 6.396C12.5602 6.508 12.5762 6.672 12.5922 6.888C12.6162 7.104 12.6522 7.328 12.7002 7.56C12.7562 7.792 12.8322 7.988 12.9282 8.148C13.0242 8.308 13.1482 8.388 13.3002 8.388C13.4442 8.388 13.5682 8.336 13.6722 8.232C13.7842 8.12 13.8762 7.984 13.9482 7.824C14.0282 7.664 14.0962 7.504 14.1522 7.344C14.2162 7.184 14.2722 7.052 14.3202 6.948C14.3682 6.836 14.4162 6.78 14.4642 6.78C14.4962 6.78 14.5162 6.8 14.5242 6.84C14.5322 6.872 14.5362 6.896 14.5362 6.912C14.5362 7.04 14.5002 7.208 14.4282 7.416C14.3562 7.616 14.2602 7.82 14.1402 8.028C14.0282 8.228 13.8962 8.4 13.7442 8.544C13.6002 8.68 13.4522 8.748 13.3002 8.748C13.0602 8.748 12.8682 8.66 12.7242 8.484C12.5882 8.308 12.4842 8.088 12.4122 7.824C12.3402 7.56 12.2882 7.3 12.2562 7.044C12.2242 6.78 12.1962 6.564 12.1722 6.396L12.1362 6.408C12.0322 6.848 11.9242 7.288 11.8122 7.728C11.7082 8.16 11.6562 8.6 11.6562 9.048C11.6562 9.096 11.6442 9.14 11.6202 9.18C11.5962 9.22 11.5562 9.24 11.5002 9.24ZM12.6642 6.048C12.8242 6.048 12.9522 5.964 13.0482 5.796C13.1442 5.628 13.2162 5.424 13.2642 5.184C13.3122 4.936 13.3442 4.7 13.3602 4.476C13.3762 4.252 13.3842 4.08 13.3842 3.96C13.3842 3.936 13.3802 3.868 13.3722 3.756C13.3642 3.636 13.3402 3.576 13.3002 3.576C13.2282 3.576 13.1442 3.66 13.0482 3.828C12.9522 3.996 12.8562 4.196 12.7602 4.428C12.6722 4.652 12.5922 4.864 12.5202 5.064C12.4482 5.256 12.4002 5.384 12.3762 5.448C12.4162 5.544 12.4442 5.644 12.4602 5.748C12.4762 5.844 12.4922 5.94 12.5082 6.036C12.5322 6.044 12.5562 6.048 12.5802 6.048C12.6122 6.048 12.6402 6.048 12.6642 6.048ZM15.4701 9C15.2541 9 15.0861 8.904 14.9661 8.712C14.8541 8.52 14.7781 8.288 14.7381 8.016C14.6981 7.736 14.6781 7.476 14.6781 7.236C14.6781 7.124 14.6781 7.024 14.6781 6.936C14.6861 6.84 14.6941 6.76 14.7021 6.696H14.6661C14.5701 6.696 14.5221 6.66 14.5221 6.588C14.5381 6.548 14.5661 6.516 14.6061 6.492C14.6541 6.46 14.6981 6.44 14.7381 6.432C14.7781 6.08 14.8541 5.72 14.9661 5.352C15.0781 4.984 15.2301 4.652 15.4221 4.356V4.284C15.4221 4.204 15.4701 4.156 15.5661 4.14C15.6061 4.1 15.6461 4.056 15.6861 4.008C15.7341 3.952 15.7861 3.924 15.8421 3.924C15.9061 3.924 15.9541 3.952 15.9861 4.008C16.0261 4.056 16.0301 4.108 15.9981 4.164C16.1501 4.196 16.2861 4.26 16.4061 4.356C16.5341 4.444 16.5981 4.576 16.5981 4.752C16.5981 4.984 16.5101 5.224 16.3341 5.472C16.1661 5.712 15.9621 5.932 15.7221 6.132C15.4901 6.324 15.2781 6.468 15.0861 6.564C15.0621 6.756 15.0461 6.952 15.0381 7.152C15.0381 7.344 15.0381 7.536 15.0381 7.728C15.0381 7.824 15.0421 7.944 15.0501 8.088C15.0661 8.232 15.1021 8.36 15.1581 8.472C15.2221 8.584 15.3261 8.64 15.4701 8.64C15.6221 8.64 15.7701 8.572 15.9141 8.436C16.0661 8.3 16.2101 8.128 16.3461 7.92C16.4901 7.704 16.6221 7.48 16.7421 7.248C16.8621 7.016 16.9661 6.796 17.0541 6.588C17.1421 6.38 17.2061 6.22 17.2461 6.108C17.2621 6.068 17.2821 6.032 17.3061 6C17.3301 5.96 17.3661 5.94 17.4141 5.94C17.4781 5.94 17.5101 5.98 17.5101 6.06C17.5101 6.188 17.4661 6.372 17.3781 6.612C17.2901 6.844 17.1701 7.096 17.0181 7.368C16.8741 7.64 16.7101 7.9 16.5261 8.148C16.3501 8.396 16.1701 8.6 15.9861 8.76C15.8021 8.92 15.6301 9 15.4701 9ZM15.1461 6.192C15.2981 6.096 15.4501 5.976 15.6021 5.832C15.7541 5.688 15.8821 5.524 15.9861 5.34C16.0901 5.156 16.1421 4.972 16.1421 4.788C16.1421 4.692 16.0941 4.624 15.9981 4.584C15.9021 4.536 15.8181 4.508 15.7461 4.5C15.5941 4.748 15.4661 5.02 15.3621 5.316C15.2661 5.612 15.1941 5.904 15.1461 6.192ZM20.508 9.336C20.372 9.336 20.272 9.268 20.208 9.132C20.144 9.004 20.104 8.856 20.088 8.688C20.072 8.52 20.064 8.392 20.064 8.304C20.064 8 20.092 7.68 20.148 7.344C20.204 7 20.276 6.68 20.364 6.384C20.404 6.248 20.476 6.052 20.58 5.796C20.684 5.532 20.808 5.264 20.952 4.992C21.104 4.72 21.264 4.492 21.432 4.308C21.608 4.116 21.784 4.02 21.96 4.02C22.096 4.02 22.244 4.08 22.404 4.2C22.564 4.32 22.644 4.452 22.644 4.596C22.644 4.652 22.624 4.7 22.584 4.74C22.592 4.732 22.612 4.728 22.644 4.728C22.796 4.728 22.872 4.808 22.872 4.968C22.872 5.152 22.844 5.372 22.788 5.628C22.74 5.884 22.688 6.156 22.632 6.444C22.576 6.724 22.548 6.996 22.548 7.26C22.548 7.356 22.556 7.472 22.572 7.608C22.588 7.736 22.624 7.852 22.68 7.956C22.744 8.06 22.844 8.112 22.98 8.112C23.108 8.112 23.244 8.044 23.388 7.908C23.532 7.772 23.672 7.604 23.808 7.404C23.944 7.204 24.072 7.004 24.192 6.804C24.312 6.604 24.412 6.436 24.492 6.3C24.58 6.164 24.64 6.096 24.672 6.096C24.728 6.096 24.756 6.132 24.756 6.204C24.756 6.3 24.712 6.44 24.624 6.624C24.544 6.8 24.436 6.996 24.3 7.212C24.164 7.42 24.012 7.624 23.844 7.824C23.684 8.016 23.52 8.176 23.352 8.304C23.192 8.424 23.048 8.484 22.92 8.484C22.712 8.484 22.552 8.4 22.44 8.232C22.336 8.056 22.264 7.848 22.224 7.608C22.192 7.368 22.176 7.144 22.176 6.936C22.176 6.864 22.176 6.796 22.176 6.732C22.176 6.668 22.18 6.612 22.188 6.564C22.14 6.676 22.072 6.844 21.984 7.068C21.896 7.284 21.792 7.524 21.672 7.788C21.56 8.044 21.436 8.292 21.3 8.532C21.172 8.764 21.04 8.956 20.904 9.108C20.768 9.26 20.636 9.336 20.508 9.336ZM20.604 8.832C20.708 8.832 20.824 8.736 20.952 8.544C21.08 8.352 21.212 8.108 21.348 7.812C21.492 7.508 21.628 7.184 21.756 6.84C21.884 6.496 22 6.172 22.104 5.868C22.216 5.556 22.308 5.3 22.38 5.1C22.452 4.892 22.5 4.78 22.524 4.764L22.452 4.776C22.396 4.776 22.352 4.748 22.32 4.692C22.288 4.628 22.248 4.568 22.2 4.512C22.152 4.456 22.072 4.428 21.96 4.428C21.816 4.428 21.676 4.512 21.54 4.68C21.404 4.848 21.272 5.052 21.144 5.292C21.024 5.524 20.92 5.752 20.832 5.976C20.752 6.2 20.696 6.368 20.664 6.48C20.504 7.032 20.424 7.6 20.424 8.184C20.424 8.216 20.424 8.288 20.424 8.4C20.432 8.504 20.448 8.604 20.472 8.7C20.504 8.788 20.548 8.832 20.604 8.832ZM24.5269 9.048C24.4709 9.048 24.4269 9.028 24.3949 8.988C24.3709 8.94 24.3589 8.888 24.3589 8.832C24.3589 8.384 24.3829 7.936 24.4309 7.488C24.4869 7.032 24.5149 6.58 24.5149 6.132C24.5149 6.084 24.5109 5.992 24.5029 5.856C24.5029 5.712 24.4949 5.56 24.4789 5.4C24.4709 5.232 24.4549 5.084 24.4309 4.956C24.4149 4.82 24.3909 4.736 24.3589 4.704C24.3269 4.68 24.2949 4.652 24.2629 4.62C24.2389 4.588 24.2269 4.548 24.2269 4.5C24.2269 4.452 24.2469 4.416 24.2869 4.392C24.3349 4.36 24.3829 4.344 24.4309 4.344C24.5669 4.344 24.6629 4.408 24.7189 4.536C24.7829 4.656 24.8229 4.804 24.8389 4.98C24.8629 5.156 24.8749 5.324 24.8749 5.484C24.8749 6.236 24.8509 6.992 24.8029 7.752C24.8349 7.664 24.8989 7.508 24.9949 7.284C25.0909 7.06 25.2069 6.808 25.3429 6.528C25.4789 6.248 25.6189 5.98 25.7629 5.724C25.9149 5.46 26.0549 5.244 26.1829 5.076C26.3109 4.9 26.4149 4.812 26.4949 4.812C26.6069 4.812 26.6869 4.884 26.7349 5.028C26.7909 5.164 26.8189 5.276 26.8189 5.364C26.8189 5.732 26.7989 6.1 26.7589 6.468C26.7269 6.836 26.7109 7.208 26.7109 7.584C26.7109 7.632 26.7149 7.724 26.7229 7.86C26.7389 7.988 26.7629 8.112 26.7949 8.232C26.8349 8.344 26.8949 8.4 26.9749 8.4C27.0389 8.4 27.1229 8.328 27.2269 8.184C27.3309 8.04 27.4389 7.872 27.5509 7.68C27.6629 7.48 27.7629 7.292 27.8509 7.116C27.9389 6.94 27.9989 6.816 28.0309 6.744C28.0389 6.728 28.0469 6.712 28.0549 6.696C28.0629 6.672 28.0749 6.66 28.0909 6.66C28.1309 6.66 28.1549 6.692 28.1629 6.756C28.1709 6.812 28.1749 6.848 28.1749 6.864C28.1749 6.944 28.1309 7.084 28.0429 7.284C27.9549 7.484 27.8429 7.696 27.7069 7.92C27.5789 8.144 27.4429 8.336 27.2989 8.496C27.1629 8.656 27.0389 8.736 26.9269 8.736C26.7669 8.736 26.6469 8.672 26.5669 8.544C26.4949 8.416 26.4469 8.272 26.4229 8.112C26.3989 7.944 26.3869 7.804 26.3869 7.692C26.3869 7.428 26.3989 7.164 26.4229 6.9C26.4549 6.636 26.4709 6.372 26.4709 6.108C26.4709 6.084 26.4669 6.024 26.4589 5.928C26.4589 5.832 26.4549 5.74 26.4469 5.652C26.4389 5.564 26.4189 5.52 26.3869 5.52C26.3069 5.52 26.2029 5.62 26.0749 5.82C25.9549 6.02 25.8229 6.272 25.6789 6.576C25.5429 6.88 25.4069 7.196 25.2709 7.524C25.1349 7.844 25.0149 8.132 24.9109 8.388C24.8149 8.644 24.7469 8.816 24.7069 8.904C24.6909 8.936 24.6669 8.968 24.6349 9C24.6109 9.032 24.5749 9.048 24.5269 9.048ZM28.5965 9.192C28.4445 9.192 28.3165 9.136 28.2125 9.024C28.1165 8.912 28.0405 8.776 27.9845 8.616C27.9285 8.448 27.8885 8.28 27.8645 8.112C27.8485 7.944 27.8405 7.804 27.8405 7.692C27.8405 7.572 27.8525 7.38 27.8765 7.116C27.9085 6.844 27.9565 6.544 28.0205 6.216C28.0845 5.888 28.1645 5.572 28.2605 5.268C28.3565 4.956 28.4685 4.696 28.5965 4.488C28.7325 4.28 28.8885 4.168 29.0645 4.152C29.0885 4.08 29.1245 4.02 29.1725 3.972C29.2205 3.916 29.2845 3.888 29.3645 3.888C29.5245 3.888 29.6645 3.956 29.7845 4.092C29.9045 4.228 30.0045 4.396 30.0845 4.596C30.1645 4.796 30.2245 4.992 30.2645 5.184C30.3125 5.376 30.3365 5.532 30.3365 5.652C30.3365 6.02 30.3005 6.384 30.2285 6.744L30.3245 6.756C30.5565 6.756 30.7365 6.72 30.8645 6.648C30.9925 6.576 31.0925 6.508 31.1645 6.444C31.2365 6.372 31.2965 6.336 31.3445 6.336C31.3925 6.336 31.4165 6.364 31.4165 6.42C31.4165 6.516 31.3645 6.604 31.2605 6.684C31.1645 6.756 31.0445 6.824 30.9005 6.888C30.7565 6.944 30.6165 6.984 30.4805 7.008C30.3445 7.032 30.2405 7.036 30.1685 7.02C30.1285 7.188 30.0605 7.396 29.9645 7.644C29.8765 7.884 29.7645 8.124 29.6285 8.364C29.5005 8.596 29.3485 8.792 29.1725 8.952C28.9965 9.112 28.8045 9.192 28.5965 9.192ZM29.9045 6.504C29.9525 6.224 29.9765 5.94 29.9765 5.652C29.9765 5.588 29.9605 5.48 29.9285 5.328C29.9045 5.168 29.8645 5 29.8085 4.824C29.7605 4.648 29.7005 4.496 29.6285 4.368C29.5565 4.24 29.4805 4.176 29.4005 4.176C29.3605 4.176 29.3285 4.208 29.3045 4.272C29.2885 4.328 29.2765 4.392 29.2685 4.464C29.2685 4.536 29.2685 4.584 29.2685 4.608C29.2685 4.928 29.3165 5.264 29.4125 5.616C29.5165 5.96 29.6805 6.256 29.9045 6.504ZM28.6325 8.88C28.7525 8.88 28.8765 8.8 29.0045 8.64C29.1325 8.472 29.2525 8.272 29.3645 8.04C29.4845 7.8 29.5845 7.572 29.6645 7.356C29.7445 7.14 29.7965 6.98 29.8205 6.876C29.5165 6.668 29.2885 6.388 29.1365 6.036C28.9925 5.684 28.9205 5.324 28.9205 4.956C28.9205 4.796 28.9325 4.644 28.9565 4.5C28.7885 4.788 28.6485 5.128 28.5365 5.52C28.4245 5.912 28.3405 6.312 28.2845 6.72C28.2365 7.128 28.2125 7.5 28.2125 7.836C28.2125 7.916 28.2205 8.04 28.2365 8.208C28.2605 8.376 28.3045 8.532 28.3685 8.676C28.4325 8.812 28.5205 8.88 28.6325 8.88ZM32.351 8.796C32.175 8.796 32.035 8.736 31.931 8.616C31.827 8.488 31.747 8.332 31.691 8.148C31.643 7.956 31.611 7.768 31.595 7.584C31.579 7.392 31.571 7.236 31.571 7.116C31.571 6.684 31.587 6.248 31.619 5.808C31.659 5.368 31.699 4.932 31.739 4.5C31.603 4.556 31.471 4.62 31.343 4.692C31.223 4.764 31.111 4.856 31.007 4.968C30.991 4.984 30.971 5 30.947 5.016C30.931 5.032 30.907 5.04 30.875 5.04C30.819 5.04 30.763 5.012 30.707 4.956C30.659 4.9 30.635 4.844 30.635 4.788C30.635 4.716 30.683 4.644 30.779 4.572C30.875 4.492 30.991 4.42 31.127 4.356C31.271 4.284 31.403 4.224 31.523 4.176C31.651 4.128 31.739 4.096 31.787 4.08C31.795 4.016 31.811 3.896 31.835 3.72C31.867 3.536 31.903 3.332 31.943 3.108C31.983 2.876 32.027 2.656 32.075 2.448C32.131 2.232 32.187 2.056 32.243 1.92C32.299 1.776 32.355 1.704 32.411 1.704C32.467 1.704 32.523 1.724 32.579 1.764C32.635 1.804 32.663 1.852 32.663 1.908C32.663 1.932 32.643 2.032 32.603 2.208C32.563 2.384 32.511 2.592 32.447 2.832C32.391 3.064 32.339 3.284 32.291 3.492C32.251 3.7 32.223 3.844 32.207 3.924C32.559 3.82 32.895 3.736 33.215 3.672C33.543 3.608 33.887 3.576 34.247 3.576C34.279 3.576 34.339 3.576 34.427 3.576C34.515 3.576 34.599 3.58 34.679 3.588C34.767 3.596 34.811 3.612 34.811 3.636C34.731 3.668 34.643 3.692 34.547 3.708C34.459 3.724 34.371 3.736 34.283 3.744C33.899 3.776 33.535 3.848 33.191 3.96C32.855 4.072 32.511 4.196 32.159 4.332C32.103 4.788 32.055 5.252 32.015 5.724C31.975 6.188 31.955 6.648 31.955 7.104C31.955 7.192 31.959 7.312 31.967 7.464C31.975 7.608 31.991 7.756 32.015 7.908C32.039 8.052 32.079 8.176 32.135 8.28C32.191 8.384 32.271 8.436 32.375 8.436C32.511 8.436 32.651 8.36 32.795 8.208C32.939 8.048 33.083 7.856 33.227 7.632C33.371 7.4 33.503 7.168 33.623 6.936C33.743 6.704 33.847 6.508 33.935 6.348C34.031 6.188 34.095 6.104 34.127 6.096V6.132C34.127 6.252 34.087 6.42 34.007 6.636C33.927 6.852 33.819 7.084 33.683 7.332C33.555 7.572 33.411 7.804 33.251 8.028C33.099 8.252 32.943 8.436 32.783 8.58C32.631 8.724 32.487 8.796 32.351 8.796ZM34.5267 8.916C34.4307 8.916 34.3587 8.848 34.3107 8.712C34.2627 8.568 34.2267 8.4 34.2027 8.208C34.1787 8.008 34.1627 7.824 34.1547 7.656C34.1547 7.48 34.1547 7.364 34.1547 7.308C34.1547 6.82 34.1747 6.3 34.2147 5.748C34.2627 5.188 34.3347 4.624 34.4307 4.056C34.5347 3.48 34.6707 2.932 34.8387 2.412C35.0067 1.884 35.2147 1.408 35.4627 0.983999C35.5187 0.888 35.6027 0.84 35.7147 0.84C35.7627 0.84 35.8067 0.856 35.8467 0.887999C35.8867 0.911999 35.9067 0.952 35.9067 1.008C35.9067 1.056 35.8907 1.112 35.8587 1.176C35.6267 1.712 35.4067 2.236 35.1987 2.748C34.9907 3.252 34.8227 3.792 34.6947 4.368C34.5267 5.136 34.4427 5.916 34.4427 6.708C34.4427 7.092 34.4667 7.472 34.5147 7.848C34.5547 7.72 34.6347 7.524 34.7547 7.26C34.8747 6.996 35.0147 6.704 35.1747 6.384C35.3427 6.064 35.5187 5.756 35.7027 5.46C35.8947 5.164 36.0787 4.924 36.2547 4.74C36.4307 4.548 36.5867 4.452 36.7227 4.452C36.8667 4.452 36.9587 4.524 36.9987 4.668C37.0467 4.804 37.0707 4.928 37.0707 5.04C37.0707 5.36 37.0467 5.68 36.9987 6C36.9507 6.32 36.9267 6.644 36.9267 6.972C36.9267 7.004 36.9307 7.092 36.9387 7.236C36.9467 7.372 36.9627 7.504 36.9867 7.632C37.0187 7.76 37.0587 7.824 37.1067 7.824C37.1787 7.824 37.2507 7.78 37.3227 7.692C37.3947 7.596 37.4587 7.492 37.5147 7.38C37.5787 7.26 37.6347 7.156 37.6827 7.068C37.7307 6.972 37.7667 6.924 37.7907 6.924C37.8147 6.924 37.8307 6.944 37.8387 6.984C37.8467 7.016 37.8507 7.04 37.8507 7.056C37.8507 7.16 37.8107 7.304 37.7307 7.488C37.6587 7.664 37.5627 7.828 37.4427 7.98C37.3227 8.124 37.2027 8.196 37.0827 8.196C36.9707 8.196 36.8787 8.148 36.8067 8.052C36.7427 7.956 36.6947 7.84 36.6627 7.704C36.6307 7.568 36.6067 7.436 36.5907 7.308C36.5827 7.18 36.5787 7.08 36.5787 7.008C36.5787 6.72 36.5907 6.432 36.6147 6.144C36.6467 5.856 36.6627 5.568 36.6627 5.28V5.184C36.6627 5.136 36.6587 5.092 36.6507 5.052C36.6427 5.004 36.6227 4.98 36.5907 4.98C36.5427 4.98 36.4747 5.036 36.3867 5.148C36.2987 5.252 36.2387 5.324 36.2067 5.364C35.9907 5.636 35.7827 5.96 35.5827 6.336C35.3907 6.712 35.2227 7.1 35.0787 7.5C34.9347 7.892 34.8307 8.26 34.7667 8.604C34.7587 8.668 34.7347 8.736 34.6947 8.808C34.6627 8.88 34.6067 8.916 34.5267 8.916ZM38.9897 9C38.7737 9 38.6057 8.904 38.4857 8.712C38.3737 8.52 38.2977 8.288 38.2577 8.016C38.2177 7.736 38.1977 7.476 38.1977 7.236C38.1977 7.124 38.1977 7.024 38.1977 6.936C38.2057 6.84 38.2137 6.76 38.2217 6.696H38.1857C38.0897 6.696 38.0417 6.66 38.0417 6.588C38.0577 6.548 38.0857 6.516 38.1257 6.492C38.1737 6.46 38.2177 6.44 38.2577 6.432C38.2977 6.08 38.3737 5.72 38.4857 5.352C38.5977 4.984 38.7497 4.652 38.9417 4.356V4.284C38.9417 4.204 38.9897 4.156 39.0857 4.14C39.1257 4.1 39.1657 4.056 39.2057 4.008C39.2537 3.952 39.3057 3.924 39.3617 3.924C39.4257 3.924 39.4737 3.952 39.5057 4.008C39.5457 4.056 39.5497 4.108 39.5177 4.164C39.6697 4.196 39.8057 4.26 39.9257 4.356C40.0537 4.444 40.1177 4.576 40.1177 4.752C40.1177 4.984 40.0297 5.224 39.8537 5.472C39.6857 5.712 39.4817 5.932 39.2417 6.132C39.0097 6.324 38.7977 6.468 38.6057 6.564C38.5817 6.756 38.5657 6.952 38.5577 7.152C38.5577 7.344 38.5577 7.536 38.5577 7.728C38.5577 7.824 38.5617 7.944 38.5697 8.088C38.5857 8.232 38.6217 8.36 38.6777 8.472C38.7417 8.584 38.8457 8.64 38.9897 8.64C39.1417 8.64 39.2897 8.572 39.4337 8.436C39.5857 8.3 39.7297 8.128 39.8657 7.92C40.0097 7.704 40.1417 7.48 40.2617 7.248C40.3817 7.016 40.4857 6.796 40.5737 6.588C40.6617 6.38 40.7257 6.22 40.7657 6.108C40.7817 6.068 40.8017 6.032 40.8257 6C40.8497 5.96 40.8857 5.94 40.9337 5.94C40.9977 5.94 41.0297 5.98 41.0297 6.06C41.0297 6.188 40.9857 6.372 40.8977 6.612C40.8097 6.844 40.6897 7.096 40.5377 7.368C40.3937 7.64 40.2297 7.9 40.0457 8.148C39.8697 8.396 39.6897 8.6 39.5057 8.76C39.3217 8.92 39.1497 9 38.9897 9ZM38.6657 6.192C38.8177 6.096 38.9697 5.976 39.1217 5.832C39.2737 5.688 39.4017 5.524 39.5057 5.34C39.6097 5.156 39.6617 4.972 39.6617 4.788C39.6617 4.692 39.6137 4.624 39.5177 4.584C39.4217 4.536 39.3377 4.508 39.2657 4.5C39.1137 4.748 38.9857 5.02 38.8817 5.316C38.7857 5.612 38.7137 5.904 38.6657 6.192ZM41.313 8.964C41.257 8.964 41.213 8.944 41.181 8.904C41.149 8.864 41.133 8.816 41.133 8.76C41.133 8.456 41.145 8.152 41.169 7.848C41.201 7.536 41.217 7.228 41.217 6.924C41.217 6.724 41.209 6.472 41.193 6.168C41.185 5.856 41.157 5.552 41.109 5.256C41.069 4.952 40.997 4.72 40.893 4.56C40.885 4.544 40.877 4.532 40.869 4.524C40.861 4.508 40.857 4.492 40.857 4.476C40.857 4.428 40.881 4.396 40.929 4.38C40.977 4.356 41.017 4.344 41.049 4.344C41.161 4.344 41.249 4.408 41.313 4.536C41.377 4.664 41.425 4.828 41.457 5.028C41.489 5.228 41.509 5.436 41.517 5.652C41.533 5.86 41.541 6.052 41.541 6.228C41.541 6.396 41.541 6.512 41.541 6.576C41.541 6.656 41.541 6.732 41.541 6.804C41.549 6.876 41.553 6.952 41.553 7.032C41.585 6.92 41.641 6.748 41.721 6.516C41.801 6.284 41.897 6.028 42.009 5.748C42.121 5.46 42.241 5.188 42.369 4.932C42.505 4.668 42.637 4.452 42.765 4.284C42.901 4.116 43.029 4.032 43.149 4.032C43.269 4.032 43.357 4.108 43.413 4.26C43.469 4.412 43.505 4.576 43.521 4.752C43.545 4.928 43.557 5.06 43.557 5.148C43.557 5.204 43.553 5.3 43.545 5.436C43.537 5.564 43.517 5.684 43.485 5.796C43.461 5.908 43.413 5.964 43.341 5.964C43.277 5.964 43.245 5.892 43.245 5.748C43.245 5.684 43.249 5.624 43.257 5.568C43.265 5.512 43.269 5.468 43.269 5.436C43.269 5.396 43.265 5.304 43.257 5.16C43.249 5.008 43.229 4.864 43.197 4.728C43.173 4.592 43.137 4.524 43.089 4.524C43.041 4.524 42.981 4.572 42.909 4.668C42.845 4.756 42.777 4.864 42.705 4.992C42.641 5.112 42.581 5.232 42.525 5.352C42.477 5.464 42.445 5.544 42.429 5.592C42.309 5.888 42.181 6.224 42.045 6.6C41.917 6.976 41.805 7.356 41.709 7.74C41.621 8.116 41.577 8.468 41.577 8.796C41.521 8.908 41.433 8.964 41.313 8.964ZM47.3635 12.096C47.2115 12.096 47.0835 12.028 46.9795 11.892C46.8755 11.756 46.7955 11.58 46.7395 11.364C46.6835 11.156 46.6395 10.936 46.6075 10.704C46.5835 10.48 46.5675 10.268 46.5595 10.068C46.5515 9.876 46.5475 9.728 46.5475 9.624C46.5475 9.072 46.5875 8.504 46.6675 7.92C46.7475 7.336 46.8515 6.756 46.9795 6.18C47.1075 5.596 47.2435 5.044 47.3875 4.524C47.3235 4.508 47.2755 4.464 47.2435 4.392C47.2195 4.312 47.2075 4.244 47.2075 4.188C47.2075 4.044 47.2555 3.972 47.3515 3.972C47.4075 3.972 47.4715 3.984 47.5435 4.008C47.5675 3.952 47.5915 3.892 47.6155 3.828C47.6475 3.756 47.6995 3.72 47.7715 3.72C47.8195 3.72 47.8635 3.736 47.9035 3.768C47.9435 3.8 47.9635 3.844 47.9635 3.9C47.9635 3.932 47.9515 3.976 47.9275 4.032C47.9115 4.08 47.8955 4.12 47.8795 4.152C48.1835 4.328 48.4635 4.548 48.7195 4.812C48.9835 5.068 49.1355 5.384 49.1755 5.76C49.2075 5.736 49.2715 5.688 49.3675 5.616C49.4715 5.544 49.5715 5.476 49.6675 5.412C49.7715 5.34 49.8355 5.304 49.8595 5.304C49.8995 5.304 49.9195 5.324 49.9195 5.364C49.9195 5.396 49.8675 5.464 49.7635 5.568C49.6595 5.664 49.5475 5.76 49.4275 5.856C49.3075 5.952 49.2275 6.02 49.1875 6.06C49.1875 6.284 49.1315 6.548 49.0195 6.852C48.9155 7.148 48.7715 7.436 48.5875 7.716C48.4035 7.996 48.1915 8.228 47.9515 8.412C47.7115 8.596 47.4635 8.688 47.2075 8.688C47.0715 8.688 47.0035 8.624 47.0035 8.496C47.0035 8.336 47.0715 8.14 47.2075 7.908C47.3515 7.676 47.5235 7.436 47.7235 7.188C47.9315 6.94 48.1355 6.716 48.3355 6.516C48.5355 6.308 48.6995 6.152 48.8275 6.048V5.964C48.8435 5.62 48.7355 5.34 48.5035 5.124C48.2715 4.908 48.0155 4.728 47.7355 4.584C47.4875 5.4 47.2795 6.256 47.1115 7.152C46.9435 8.04 46.8595 8.912 46.8595 9.768C46.8595 9.856 46.8635 10.008 46.8715 10.224C46.8795 10.448 46.8995 10.68 46.9315 10.92C46.9715 11.168 47.0275 11.38 47.0995 11.556C47.1795 11.732 47.2875 11.82 47.4235 11.82C47.5275 11.82 47.6195 11.772 47.6995 11.676C47.7795 11.58 47.8515 11.484 47.9155 11.388C47.9795 11.292 48.0315 11.244 48.0715 11.244C48.1035 11.244 48.1195 11.272 48.1195 11.328C48.1195 11.416 48.0755 11.52 47.9875 11.64C47.8995 11.768 47.7955 11.876 47.6755 11.964C47.5555 12.052 47.4515 12.096 47.3635 12.096ZM47.3035 8.412C47.4715 8.412 47.6355 8.34 47.7955 8.196C47.9555 8.044 48.0995 7.86 48.2275 7.644C48.3635 7.42 48.4795 7.2 48.5755 6.984C48.6715 6.768 48.7355 6.596 48.7675 6.468C48.7195 6.516 48.6355 6.608 48.5155 6.744C48.4035 6.872 48.2755 7.024 48.1315 7.2C47.9875 7.368 47.8475 7.536 47.7115 7.704C47.5835 7.864 47.4755 8.008 47.3875 8.136C47.2995 8.264 47.2555 8.348 47.2555 8.388C47.2555 8.404 47.2715 8.412 47.3035 8.412ZM50.8647 9.156C50.6487 9.156 50.4767 9.072 50.3487 8.904C50.2207 8.728 50.1287 8.516 50.0727 8.268C50.0167 8.012 49.9807 7.76 49.9647 7.512C49.9487 7.264 49.9407 7.068 49.9407 6.924C49.9407 6.116 50.0327 5.3 50.2167 4.476C50.3047 4.092 50.3887 3.756 50.4687 3.468C50.5567 3.18 50.6487 2.912 50.7447 2.664C50.8407 2.416 50.9487 2.16 51.0687 1.896C51.1967 1.632 51.3407 1.332 51.5007 0.995999H51.4647C51.4167 0.995999 51.3767 0.975999 51.3447 0.935999C51.3207 0.888 51.3087 0.844 51.3087 0.804C51.3087 0.707999 51.3687 0.628 51.4887 0.564C51.6087 0.5 51.7087 0.468 51.7887 0.468C51.9567 0.468 52.0847 0.544 52.1727 0.696C52.2607 0.84 52.3207 1.008 52.3527 1.2C52.3847 1.384 52.4007 1.54 52.4007 1.668C52.4007 1.828 52.3887 1.992 52.3647 2.16C52.3087 2.56 52.2087 2.988 52.0647 3.444C51.9287 3.9 51.7527 4.336 51.5367 4.752C51.3287 5.16 51.0727 5.512 50.7687 5.808C50.7127 5.856 50.6407 5.916 50.5527 5.988C50.4727 6.052 50.3887 6.084 50.3007 6.084C50.2767 6.356 50.2647 6.636 50.2647 6.924C50.2647 7.028 50.2687 7.184 50.2767 7.392C50.2927 7.592 50.3207 7.804 50.3607 8.028C50.4087 8.244 50.4767 8.432 50.5647 8.592C50.6607 8.744 50.7847 8.82 50.9367 8.82C51.1047 8.82 51.2647 8.732 51.4167 8.556C51.5767 8.372 51.7247 8.148 51.8607 7.884C51.9967 7.612 52.1207 7.344 52.2327 7.08C52.3447 6.808 52.4367 6.584 52.5087 6.408C52.5887 6.224 52.6447 6.128 52.6767 6.12C52.7007 6.152 52.7127 6.2 52.7127 6.264C52.7127 6.4 52.6767 6.584 52.6047 6.816C52.5327 7.048 52.4327 7.3 52.3047 7.572C52.1847 7.836 52.0447 8.092 51.8847 8.34C51.7247 8.58 51.5567 8.776 51.3807 8.928C51.2127 9.08 51.0407 9.156 50.8647 9.156ZM50.3247 5.844C50.5087 5.796 50.6847 5.644 50.8527 5.388C51.0287 5.132 51.1887 4.82 51.3327 4.452C51.4767 4.084 51.6007 3.708 51.7047 3.324C51.8167 2.932 51.9007 2.576 51.9567 2.256C52.0207 1.928 52.0527 1.684 52.0527 1.524C52.0527 1.444 52.0447 1.344 52.0287 1.224C52.0127 1.096 51.9527 1.016 51.8487 0.983999C51.8407 1.016 51.8207 1.04 51.7887 1.056C51.7647 1.072 51.7447 1.088 51.7287 1.104C51.6327 1.208 51.5247 1.408 51.4047 1.704C51.2847 2 51.1647 2.348 51.0447 2.748C50.9327 3.148 50.8247 3.552 50.7207 3.96C50.6167 4.368 50.5287 4.744 50.4567 5.088C50.3847 5.424 50.3407 5.676 50.3247 5.844ZM52.6877 9.336C52.5517 9.336 52.4517 9.268 52.3877 9.132C52.3237 9.004 52.2837 8.856 52.2677 8.688C52.2517 8.52 52.2437 8.392 52.2437 8.304C52.2437 8 52.2717 7.68 52.3277 7.344C52.3837 7 52.4557 6.68 52.5437 6.384C52.5837 6.248 52.6557 6.052 52.7597 5.796C52.8637 5.532 52.9877 5.264 53.1317 4.992C53.2837 4.72 53.4437 4.492 53.6117 4.308C53.7877 4.116 53.9637 4.02 54.1397 4.02C54.2757 4.02 54.4237 4.08 54.5837 4.2C54.7437 4.32 54.8237 4.452 54.8237 4.596C54.8237 4.652 54.8037 4.7 54.7637 4.74C54.7717 4.732 54.7917 4.728 54.8237 4.728C54.9757 4.728 55.0517 4.808 55.0517 4.968C55.0517 5.152 55.0237 5.372 54.9677 5.628C54.9197 5.884 54.8677 6.156 54.8117 6.444C54.7557 6.724 54.7277 6.996 54.7277 7.26C54.7277 7.356 54.7357 7.472 54.7517 7.608C54.7677 7.736 54.8037 7.852 54.8597 7.956C54.9237 8.06 55.0237 8.112 55.1597 8.112C55.2877 8.112 55.4237 8.044 55.5677 7.908C55.7117 7.772 55.8517 7.604 55.9877 7.404C56.1237 7.204 56.2517 7.004 56.3717 6.804C56.4917 6.604 56.5917 6.436 56.6717 6.3C56.7597 6.164 56.8197 6.096 56.8517 6.096C56.9077 6.096 56.9357 6.132 56.9357 6.204C56.9357 6.3 56.8917 6.44 56.8037 6.624C56.7237 6.8 56.6157 6.996 56.4797 7.212C56.3437 7.42 56.1917 7.624 56.0237 7.824C55.8637 8.016 55.6997 8.176 55.5317 8.304C55.3717 8.424 55.2277 8.484 55.0997 8.484C54.8917 8.484 54.7317 8.4 54.6197 8.232C54.5157 8.056 54.4437 7.848 54.4037 7.608C54.3717 7.368 54.3557 7.144 54.3557 6.936C54.3557 6.864 54.3557 6.796 54.3557 6.732C54.3557 6.668 54.3597 6.612 54.3677 6.564C54.3197 6.676 54.2517 6.844 54.1637 7.068C54.0757 7.284 53.9717 7.524 53.8517 7.788C53.7397 8.044 53.6157 8.292 53.4797 8.532C53.3517 8.764 53.2197 8.956 53.0837 9.108C52.9477 9.26 52.8157 9.336 52.6877 9.336ZM52.7837 8.832C52.8877 8.832 53.0037 8.736 53.1317 8.544C53.2597 8.352 53.3917 8.108 53.5277 7.812C53.6717 7.508 53.8077 7.184 53.9357 6.84C54.0637 6.496 54.1797 6.172 54.2837 5.868C54.3957 5.556 54.4877 5.3 54.5597 5.1C54.6317 4.892 54.6797 4.78 54.7037 4.764L54.6317 4.776C54.5757 4.776 54.5317 4.748 54.4997 4.692C54.4677 4.628 54.4277 4.568 54.3797 4.512C54.3317 4.456 54.2517 4.428 54.1397 4.428C53.9957 4.428 53.8557 4.512 53.7197 4.68C53.5837 4.848 53.4517 5.052 53.3237 5.292C53.2037 5.524 53.0997 5.752 53.0117 5.976C52.9317 6.2 52.8757 6.368 52.8437 6.48C52.6837 7.032 52.6037 7.6 52.6037 8.184C52.6037 8.216 52.6037 8.288 52.6037 8.4C52.6117 8.504 52.6277 8.604 52.6517 8.7C52.6837 8.788 52.7277 8.832 52.7837 8.832ZM57.5346 8.796C57.3586 8.796 57.2186 8.736 57.1146 8.616C57.0106 8.488 56.9306 8.332 56.8746 8.148C56.8266 7.956 56.7946 7.768 56.7786 7.584C56.7626 7.392 56.7546 7.236 56.7546 7.116C56.7546 6.684 56.7706 6.248 56.8026 5.808C56.8426 5.368 56.8826 4.932 56.9226 4.5C56.7866 4.556 56.6546 4.62 56.5266 4.692C56.4066 4.764 56.2946 4.856 56.1906 4.968C56.1746 4.984 56.1546 5 56.1306 5.016C56.1146 5.032 56.0906 5.04 56.0586 5.04C56.0026 5.04 55.9466 5.012 55.8906 4.956C55.8426 4.9 55.8186 4.844 55.8186 4.788C55.8186 4.716 55.8666 4.644 55.9626 4.572C56.0586 4.492 56.1746 4.42 56.3106 4.356C56.4546 4.284 56.5866 4.224 56.7066 4.176C56.8346 4.128 56.9226 4.096 56.9706 4.08C56.9786 4.016 56.9946 3.896 57.0186 3.72C57.0506 3.536 57.0866 3.332 57.1266 3.108C57.1666 2.876 57.2106 2.656 57.2586 2.448C57.3146 2.232 57.3706 2.056 57.4266 1.92C57.4826 1.776 57.5386 1.704 57.5946 1.704C57.6506 1.704 57.7066 1.724 57.7626 1.764C57.8186 1.804 57.8466 1.852 57.8466 1.908C57.8466 1.932 57.8266 2.032 57.7866 2.208C57.7466 2.384 57.6946 2.592 57.6306 2.832C57.5746 3.064 57.5226 3.284 57.4746 3.492C57.4346 3.7 57.4066 3.844 57.3906 3.924C57.7426 3.82 58.0786 3.736 58.3986 3.672C58.7266 3.608 59.0706 3.576 59.4306 3.576C59.4626 3.576 59.5226 3.576 59.6106 3.576C59.6986 3.576 59.7826 3.58 59.8626 3.588C59.9506 3.596 59.9946 3.612 59.9946 3.636C59.9146 3.668 59.8266 3.692 59.7306 3.708C59.6426 3.724 59.5546 3.736 59.4666 3.744C59.0826 3.776 58.7186 3.848 58.3746 3.96C58.0386 4.072 57.6946 4.196 57.3426 4.332C57.2866 4.788 57.2386 5.252 57.1986 5.724C57.1586 6.188 57.1386 6.648 57.1386 7.104C57.1386 7.192 57.1426 7.312 57.1506 7.464C57.1586 7.608 57.1746 7.756 57.1986 7.908C57.2226 8.052 57.2626 8.176 57.3186 8.28C57.3746 8.384 57.4546 8.436 57.5586 8.436C57.6946 8.436 57.8346 8.36 57.9786 8.208C58.1226 8.048 58.2666 7.856 58.4106 7.632C58.5546 7.4 58.6866 7.168 58.8066 6.936C58.9266 6.704 59.0306 6.508 59.1186 6.348C59.2146 6.188 59.2786 6.104 59.3106 6.096V6.132C59.3106 6.252 59.2706 6.42 59.1906 6.636C59.1106 6.852 59.0026 7.084 58.8666 7.332C58.7386 7.572 58.5946 7.804 58.4346 8.028C58.2826 8.252 58.1266 8.436 57.9666 8.58C57.8146 8.724 57.6706 8.796 57.5346 8.796ZM60.1303 9C59.9143 9 59.7463 8.904 59.6263 8.712C59.5143 8.52 59.4383 8.288 59.3983 8.016C59.3583 7.736 59.3383 7.476 59.3383 7.236C59.3383 7.124 59.3383 7.024 59.3383 6.936C59.3463 6.84 59.3543 6.76 59.3623 6.696H59.3263C59.2303 6.696 59.1823 6.66 59.1823 6.588C59.1983 6.548 59.2263 6.516 59.2663 6.492C59.3143 6.46 59.3583 6.44 59.3983 6.432C59.4383 6.08 59.5143 5.72 59.6263 5.352C59.7383 4.984 59.8903 4.652 60.0823 4.356V4.284C60.0823 4.204 60.1303 4.156 60.2263 4.14C60.2663 4.1 60.3063 4.056 60.3463 4.008C60.3943 3.952 60.4463 3.924 60.5023 3.924C60.5663 3.924 60.6143 3.952 60.6463 4.008C60.6863 4.056 60.6903 4.108 60.6583 4.164C60.8103 4.196 60.9463 4.26 61.0663 4.356C61.1943 4.444 61.2583 4.576 61.2583 4.752C61.2583 4.984 61.1703 5.224 60.9943 5.472C60.8263 5.712 60.6223 5.932 60.3823 6.132C60.1503 6.324 59.9383 6.468 59.7463 6.564C59.7223 6.756 59.7063 6.952 59.6983 7.152C59.6983 7.344 59.6983 7.536 59.6983 7.728C59.6983 7.824 59.7023 7.944 59.7103 8.088C59.7263 8.232 59.7623 8.36 59.8183 8.472C59.8823 8.584 59.9863 8.64 60.1303 8.64C60.2823 8.64 60.4303 8.572 60.5743 8.436C60.7263 8.3 60.8703 8.128 61.0063 7.92C61.1503 7.704 61.2823 7.48 61.4023 7.248C61.5223 7.016 61.6263 6.796 61.7143 6.588C61.8023 6.38 61.8663 6.22 61.9063 6.108C61.9223 6.068 61.9423 6.032 61.9663 6C61.9903 5.96 62.0263 5.94 62.0743 5.94C62.1383 5.94 62.1703 5.98 62.1703 6.06C62.1703 6.188 62.1263 6.372 62.0383 6.612C61.9503 6.844 61.8303 7.096 61.6783 7.368C61.5343 7.64 61.3703 7.9 61.1863 8.148C61.0103 8.396 60.8303 8.6 60.6463 8.76C60.4623 8.92 60.2903 9 60.1303 9ZM59.8063 6.192C59.9583 6.096 60.1103 5.976 60.2623 5.832C60.4143 5.688 60.5423 5.524 60.6463 5.34C60.7503 5.156 60.8023 4.972 60.8023 4.788C60.8023 4.692 60.7543 4.624 60.6583 4.584C60.5623 4.536 60.4783 4.508 60.4063 4.5C60.2543 4.748 60.1263 5.02 60.0223 5.316C59.9263 5.612 59.8543 5.904 59.8063 6.192Z" fill="white"/>
</svg>
