<svg width="71" height="14" viewBox="0 0 71 14" fill="none" xmlns="http://www.w3.org/2000/svg">
<path d="M4.35156 0.621094C4.33594 0.675781 4.32031 0.746094 4.30469 0.832031C4.29297 0.914062 4.2793 1.00586 4.26367 1.10742C4.54883 1.13086 4.84375 1.16211 5.14844 1.20117C5.45703 1.24023 5.75781 1.29102 6.05078 1.35352C6.34375 1.41211 6.62305 1.48242 6.88867 1.56445C7.1582 1.64258 7.40039 1.73242 7.61523 1.83398L7.56836 1.94531C7.13867 1.89063 6.70898 1.85352 6.2793 1.83398C5.85352 1.81055 5.42773 1.79883 5.00195 1.79883C4.86523 1.79883 4.72656 1.80273 4.58594 1.81055C4.44922 1.81836 4.31055 1.82617 4.16992 1.83398C4.13867 2.12305 4.10742 2.44531 4.07617 2.80078C4.04492 3.15234 4.01562 3.52344 3.98828 3.91406C3.96484 4.30469 3.94336 4.70898 3.92383 5.12695C3.9082 5.54102 3.89648 5.95703 3.88867 6.375C3.88086 6.78906 3.87891 7.19727 3.88281 7.59961C3.89062 7.99805 3.90625 8.37891 3.92969 8.74219C3.95312 9.10156 3.98633 9.43555 4.0293 9.74414C4.07227 10.0527 4.12695 10.3203 4.19336 10.5469C4.20117 10.582 4.21094 10.6172 4.22266 10.6523C4.23828 10.6914 4.24609 10.7285 4.24609 10.7637C4.24609 10.8262 4.23047 10.875 4.19922 10.9102C4.16797 10.9492 4.11914 10.9688 4.05273 10.9688C3.9668 10.9688 3.88086 10.9453 3.79492 10.8984C3.71289 10.8516 3.63867 10.8066 3.57227 10.7637C3.45508 10.6855 3.36523 10.5605 3.30273 10.3887C3.24023 10.2168 3.19531 10.0312 3.16797 9.83203C3.14062 9.63281 3.125 9.4375 3.12109 9.24609C3.11719 9.05469 3.11523 8.89648 3.11523 8.77148C3.11523 8.47461 3.12109 8.14648 3.13281 7.78711C3.14844 7.42773 3.16797 7.05078 3.19141 6.65625C3.21875 6.25781 3.25195 5.84961 3.29102 5.43164C3.33008 5.00977 3.37695 4.59375 3.43164 4.18359C3.48633 3.76953 3.54688 3.36523 3.61328 2.9707C3.68359 2.57617 3.76172 2.20508 3.84766 1.85742C3.55859 1.87695 3.26953 1.9043 2.98047 1.93945C2.69531 1.9707 2.41602 2.00977 2.14258 2.05664C1.87305 2.10352 1.61328 2.15625 1.36328 2.21484C1.11719 2.26953 0.888672 2.33203 0.677734 2.40234C0.630859 2.42578 0.580078 2.4375 0.525391 2.4375C0.412109 2.4375 0.355469 2.38086 0.355469 2.26758C0.355469 2.18945 0.376953 2.10938 0.419922 2.02734C0.462891 1.94531 0.505859 1.87305 0.548828 1.81055C0.615234 1.7168 0.714844 1.63477 0.847656 1.56445C0.976562 1.49023 1.125 1.42578 1.29297 1.37109C1.46484 1.3125 1.64453 1.26562 1.83203 1.23047C2.02344 1.19141 2.20898 1.16016 2.38867 1.13672C2.56836 1.10937 2.73633 1.0918 2.89258 1.08398C3.05273 1.07227 3.18359 1.06641 3.28516 1.06641C3.40234 1.06641 3.52539 1.07031 3.6543 1.07812C3.7832 1.08203 3.91602 1.08789 4.05273 1.0957C4.11523 0.900391 4.17969 0.726562 4.24609 0.574219L4.35156 0.621094ZM7.92578 5.92969C7.92578 5.97266 7.91016 6.01172 7.87891 6.04688C7.84766 6.07812 7.81055 6.09375 7.76758 6.09375C7.73242 6.09375 7.69531 6.08398 7.65625 6.06445C7.61719 6.04102 7.57227 6.01562 7.52148 5.98828C7.47461 5.96094 7.41797 5.9375 7.35156 5.91797C7.28906 5.89453 7.2168 5.88281 7.13477 5.88281C6.94336 5.88281 6.77148 5.94336 6.61914 6.06445C6.4707 6.18164 6.34375 6.32812 6.23828 6.50391C6.13672 6.67969 6.05859 6.86719 6.00391 7.06641C5.94922 7.26562 5.92188 7.44531 5.92188 7.60547C5.92188 7.71875 5.93164 7.83008 5.95117 7.93945C5.9707 8.04492 6.00391 8.14258 6.05078 8.23242C6.10156 8.31836 6.16992 8.38867 6.25586 8.44336C6.3418 8.49414 6.45117 8.51953 6.58398 8.51953C6.72461 8.51953 6.85938 8.49414 6.98828 8.44336C7.11719 8.38867 7.23828 8.31836 7.35156 8.23242C7.35547 8.10742 7.375 7.97656 7.41016 7.83984C7.44922 7.69922 7.49805 7.5625 7.55664 7.42969C7.61523 7.29297 7.68164 7.16406 7.75586 7.04297C7.83398 6.92188 7.91406 6.81445 7.99609 6.7207L8.07227 6.76758C8.0293 6.90039 7.99805 7.03711 7.97852 7.17773C7.95898 7.31836 7.94922 7.45703 7.94922 7.59375C7.94922 7.73438 7.96094 7.86719 7.98438 7.99219C8.00781 8.11719 8.04883 8.22656 8.10742 8.32031C8.16602 8.41016 8.24609 8.48242 8.34766 8.53711C8.44922 8.58789 8.58008 8.61328 8.74023 8.61328C8.93555 8.61328 9.11523 8.56836 9.2793 8.47852C9.44336 8.38867 9.58789 8.27539 9.71289 8.13867L9.75977 8.16211C9.68945 8.29883 9.59766 8.42969 9.48438 8.55469C9.37109 8.67969 9.24414 8.79297 9.10352 8.89453C8.9668 8.99219 8.82031 9.07031 8.66406 9.12891C8.50781 9.1875 8.35352 9.2168 8.20117 9.2168C7.98633 9.2168 7.81055 9.1543 7.67383 9.0293C7.53711 8.9082 7.44336 8.75391 7.39258 8.56641C7.22852 8.73047 7.04492 8.86914 6.8418 8.98242C6.64258 9.0918 6.43164 9.14648 6.20898 9.14648C6.04492 9.14648 5.89844 9.11523 5.76953 9.05273C5.64453 8.99414 5.53906 8.91406 5.45312 8.8125C5.36719 8.71094 5.30078 8.5918 5.25391 8.45508C5.21094 8.31445 5.18945 8.16797 5.18945 8.01562C5.18945 7.83984 5.2168 7.66016 5.27148 7.47656C5.33008 7.28906 5.4082 7.10547 5.50586 6.92578C5.60742 6.74609 5.72656 6.57617 5.86328 6.41602C6 6.25586 6.14844 6.11523 6.30859 5.99414C6.47266 5.87305 6.64453 5.77734 6.82422 5.70703C7.00391 5.63672 7.1875 5.60156 7.375 5.60156C7.41797 5.60156 7.4707 5.60742 7.5332 5.61914C7.5957 5.62695 7.65625 5.64258 7.71484 5.66602C7.77344 5.68945 7.82227 5.72266 7.86133 5.76562C7.9043 5.80859 7.92578 5.86328 7.92578 5.92969ZM14.1484 8.10352C14.0703 8.25586 13.9805 8.40234 13.8789 8.54297C13.7773 8.68359 13.6602 8.80859 13.5273 8.91797C13.3945 9.02734 13.2461 9.11328 13.082 9.17578C12.918 9.24219 12.7324 9.27539 12.5254 9.27539C12.1504 9.27539 11.8418 9.18945 11.5996 9.01758C11.3613 8.8457 11.1602 8.60547 10.9961 8.29688C10.9492 8.31641 10.9023 8.33398 10.8555 8.34961C10.8125 8.36133 10.7695 8.375 10.7266 8.39062C10.7188 8.45703 10.7109 8.51758 10.7031 8.57227C10.6953 8.62695 10.6875 8.67773 10.6797 8.72461C10.6719 8.77539 10.6621 8.83008 10.6504 8.88867C10.6387 8.94727 10.6191 9.00195 10.5918 9.05273C10.5645 9.10352 10.5273 9.14453 10.4805 9.17578C10.4336 9.21094 10.3691 9.22852 10.2871 9.22852C10.1699 9.22852 10.0879 9.19141 10.041 9.11719C9.99414 9.04688 9.95703 8.96875 9.92969 8.88281C9.87109 8.69531 9.81641 8.46875 9.76562 8.20312C9.71875 7.9375 9.67773 7.66406 9.64258 7.38281C9.60742 7.09766 9.58008 6.81641 9.56055 6.53906C9.54102 6.26172 9.53125 6.01562 9.53125 5.80078C9.53125 5.54297 9.53906 5.27148 9.55469 4.98633C9.57031 4.69727 9.59766 4.40625 9.63672 4.11328C9.67578 3.82031 9.72852 3.53125 9.79492 3.24609C9.86523 2.95703 9.95312 2.68164 10.0586 2.41992C10.1641 2.1582 10.2891 1.91602 10.4336 1.69336C10.582 1.4668 10.7559 1.27148 10.9551 1.10742C11.0449 1.0332 11.1465 0.96875 11.2598 0.914062C11.377 0.859375 11.4922 0.832031 11.6055 0.832031C11.6523 0.832031 11.7051 0.84375 11.7637 0.867188C11.8262 0.886719 11.8574 0.925781 11.8574 0.984375C11.8574 1.01562 11.8418 1.05273 11.8105 1.0957C11.252 1.86523 10.8477 2.68359 10.5977 3.55078C10.3477 4.41406 10.2227 5.33008 10.2227 6.29883C10.2227 6.69727 10.2402 7.08203 10.2754 7.45312C10.3145 7.82031 10.3652 8.20508 10.4277 8.60742C10.4434 8.4043 10.4648 8.1875 10.4922 7.95703C10.5234 7.72266 10.5645 7.49219 10.6152 7.26562C10.6699 7.03906 10.7383 6.82227 10.8203 6.61523C10.9023 6.4043 11.0039 6.21875 11.125 6.05859C11.2461 5.89844 11.3867 5.77148 11.5469 5.67773C11.7109 5.58008 11.9023 5.53125 12.1211 5.53125C12.3516 5.53125 12.543 5.59961 12.6953 5.73633C12.8477 5.86914 12.9238 6.05273 12.9238 6.28711C12.9238 6.41992 12.9023 6.55078 12.8594 6.67969C12.8164 6.80859 12.7578 6.93164 12.6836 7.04883C12.6133 7.16211 12.5312 7.26953 12.4375 7.37109C12.3477 7.47266 12.2539 7.56055 12.1562 7.63477C12.0156 7.74414 11.8613 7.84961 11.6934 7.95117C11.7559 8.07227 11.8262 8.1875 11.9043 8.29688C11.9824 8.40234 12.0684 8.49609 12.1621 8.57812C12.2559 8.65625 12.3594 8.71875 12.4727 8.76562C12.5898 8.8125 12.7188 8.83594 12.8594 8.83594C12.9844 8.83594 13.1055 8.81641 13.2227 8.77734C13.3438 8.73438 13.457 8.67969 13.5625 8.61328C13.668 8.54297 13.7656 8.46289 13.8555 8.37305C13.9492 8.2793 14.0332 8.18164 14.1074 8.08008L14.1484 8.10352ZM11.834 6.26953C11.6387 6.26953 11.4785 6.33203 11.3535 6.45703C11.2285 6.57812 11.125 6.73242 11.043 6.91992C10.9648 7.10352 10.9043 7.30664 10.8613 7.5293C10.8184 7.75195 10.7832 7.96289 10.7559 8.16211C10.9434 8.08789 11.1211 7.99805 11.2891 7.89258C11.4609 7.7832 11.6094 7.66406 11.7344 7.53516C11.8594 7.40625 11.959 7.26953 12.0332 7.125C12.1074 6.97656 12.1445 6.82227 12.1445 6.66211C12.1445 6.56055 12.1172 6.4707 12.0625 6.39258C12.0117 6.31055 11.9355 6.26953 11.834 6.26953ZM17.5938 8.16211C17.4922 8.31055 17.3691 8.44922 17.2246 8.57812C17.084 8.70703 16.9277 8.81836 16.7559 8.91211C16.5879 9.00586 16.4102 9.08008 16.2227 9.13477C16.0391 9.18945 15.8535 9.2168 15.666 9.2168C15.4004 9.2168 15.1523 9.18164 14.9219 9.11133C14.6914 9.04492 14.4902 8.94141 14.3184 8.80078C14.1465 8.66016 14.0117 8.48438 13.9141 8.27344C13.8164 8.05859 13.7676 7.80859 13.7676 7.52344C13.7676 7.24219 13.8184 6.98047 13.9199 6.73828C14.0254 6.49219 14.168 6.2793 14.3477 6.09961C14.5312 5.91602 14.7461 5.77148 14.9922 5.66602C15.2383 5.56055 15.502 5.50781 15.7832 5.50781C15.916 5.50781 16.0391 5.52734 16.1523 5.56641C16.2695 5.60156 16.3711 5.65625 16.457 5.73047C16.543 5.80078 16.6094 5.88867 16.6562 5.99414C16.707 6.09961 16.7324 6.2207 16.7324 6.35742C16.7324 6.52148 16.6992 6.66602 16.6328 6.79102C16.5664 6.91602 16.4785 7.02539 16.3691 7.11914C16.2598 7.21289 16.1348 7.29102 15.9941 7.35352C15.8574 7.41602 15.7129 7.4668 15.5605 7.50586C15.4121 7.54492 15.2637 7.57422 15.1152 7.59375C14.9707 7.60938 14.8379 7.61719 14.7168 7.61719H14.5762C14.627 7.97266 14.7676 8.24414 14.998 8.43164C15.2285 8.61914 15.5469 8.71289 15.9531 8.71289C16.2422 8.71289 16.5234 8.66211 16.7969 8.56055C17.0742 8.45898 17.3242 8.31836 17.5469 8.13867L17.5938 8.16211ZM14.5586 7.44141H14.7051C14.8457 7.44141 14.9902 7.41992 15.1387 7.37695C15.2871 7.33008 15.4199 7.26367 15.5371 7.17773C15.6582 7.08789 15.7578 6.97852 15.8359 6.84961C15.9141 6.7207 15.9531 6.57422 15.9531 6.41016C15.9531 6.25 15.918 6.11719 15.8477 6.01172C15.7812 5.90625 15.6641 5.85352 15.4961 5.85352C15.3242 5.85352 15.1777 5.90625 15.0566 6.01172C14.9395 6.11328 14.8438 6.24023 14.7695 6.39258C14.6953 6.54102 14.6406 6.69922 14.6055 6.86719C14.5742 7.03125 14.5586 7.17773 14.5586 7.30664V7.44141ZM22.8789 5.92969C22.8789 5.97266 22.8633 6.01172 22.832 6.04688C22.8008 6.07812 22.7637 6.09375 22.7207 6.09375C22.6855 6.09375 22.6484 6.08398 22.6094 6.06445C22.5703 6.04102 22.5254 6.01562 22.4746 5.98828C22.4277 5.96094 22.3711 5.9375 22.3047 5.91797C22.2422 5.89453 22.1699 5.88281 22.0879 5.88281C21.8965 5.88281 21.7246 5.94336 21.5723 6.06445C21.4238 6.18164 21.2969 6.32812 21.1914 6.50391C21.0898 6.67969 21.0117 6.86719 20.957 7.06641C20.9023 7.26562 20.875 7.44531 20.875 7.60547C20.875 7.71875 20.8848 7.83008 20.9043 7.93945C20.9238 8.04492 20.957 8.14258 21.0039 8.23242C21.0547 8.31836 21.123 8.38867 21.209 8.44336C21.2949 8.49414 21.4043 8.51953 21.5371 8.51953C21.6777 8.51953 21.8125 8.49414 21.9414 8.44336C22.0703 8.38867 22.1914 8.31836 22.3047 8.23242C22.3086 8.10742 22.3281 7.97656 22.3633 7.83984C22.4023 7.69922 22.4512 7.5625 22.5098 7.42969C22.5684 7.29297 22.6348 7.16406 22.709 7.04297C22.7871 6.92188 22.8672 6.81445 22.9492 6.7207L23.0254 6.76758C22.9824 6.90039 22.9512 7.03711 22.9316 7.17773C22.9121 7.31836 22.9023 7.45703 22.9023 7.59375C22.9023 7.73438 22.9141 7.86719 22.9375 7.99219C22.9609 8.11719 23.002 8.22656 23.0605 8.32031C23.1191 8.41016 23.1992 8.48242 23.3008 8.53711C23.4023 8.58789 23.5332 8.61328 23.6934 8.61328C23.8887 8.61328 24.0684 8.56836 24.2324 8.47852C24.3965 8.38867 24.541 8.27539 24.666 8.13867L24.7129 8.16211C24.6426 8.29883 24.5508 8.42969 24.4375 8.55469C24.3242 8.67969 24.1973 8.79297 24.0566 8.89453C23.9199 8.99219 23.7734 9.07031 23.6172 9.12891C23.4609 9.1875 23.3066 9.2168 23.1543 9.2168C22.9395 9.2168 22.7637 9.1543 22.627 9.0293C22.4902 8.9082 22.3965 8.75391 22.3457 8.56641C22.1816 8.73047 21.998 8.86914 21.7949 8.98242C21.5957 9.0918 21.3848 9.14648 21.1621 9.14648C20.998 9.14648 20.8516 9.11523 20.7227 9.05273C20.5977 8.99414 20.4922 8.91406 20.4062 8.8125C20.3203 8.71094 20.2539 8.5918 20.207 8.45508C20.1641 8.31445 20.1426 8.16797 20.1426 8.01562C20.1426 7.83984 20.1699 7.66016 20.2246 7.47656C20.2832 7.28906 20.3613 7.10547 20.459 6.92578C20.5605 6.74609 20.6797 6.57617 20.8164 6.41602C20.9531 6.25586 21.1016 6.11523 21.2617 5.99414C21.4258 5.87305 21.5977 5.77734 21.7773 5.70703C21.957 5.63672 22.1406 5.60156 22.3281 5.60156C22.3711 5.60156 22.4238 5.60742 22.4863 5.61914C22.5488 5.62695 22.6094 5.64258 22.668 5.66602C22.7266 5.68945 22.7754 5.72266 22.8145 5.76562C22.8574 5.80859 22.8789 5.86328 22.8789 5.92969ZM29.4941 8.16211C29.4199 8.30273 29.3398 8.4375 29.2539 8.56641C29.1719 8.69531 29.0781 8.80859 28.9727 8.90625C28.8672 9.00391 28.748 9.08203 28.6152 9.14062C28.4824 9.19922 28.3301 9.22852 28.1582 9.22852C27.9629 9.22852 27.7949 9.17969 27.6543 9.08203C27.5137 8.98828 27.3926 8.86328 27.291 8.70703C27.1934 8.54688 27.1133 8.36523 27.0508 8.16211C26.9922 7.95898 26.9434 7.75195 26.9043 7.54102C26.8652 7.33008 26.8359 7.12305 26.8164 6.91992C26.7969 6.71289 26.7793 6.52734 26.7637 6.36328C26.6895 6.42188 26.5996 6.53516 26.4941 6.70312C26.3887 6.86719 26.2812 7.06055 26.1719 7.2832C26.0625 7.50586 25.957 7.74805 25.8555 8.00977C25.7578 8.27148 25.6777 8.5293 25.6152 8.7832C25.6035 8.83789 25.584 8.89453 25.5566 8.95312C25.5332 9.01172 25.502 9.06445 25.4629 9.11133C25.4277 9.16211 25.3848 9.20312 25.334 9.23438C25.2832 9.26953 25.2266 9.28711 25.1641 9.28711C25.0625 9.28711 24.9883 9.25195 24.9414 9.18164C24.8984 9.11133 24.8672 9.03125 24.8477 8.94141C24.7344 8.44531 24.6543 7.9707 24.6074 7.51758C24.5645 7.06445 24.543 6.61133 24.543 6.1582C24.543 6.04883 24.5605 5.95508 24.5957 5.87695C24.6348 5.79492 24.6855 5.72852 24.748 5.67773C24.8105 5.62305 24.8848 5.58398 24.9707 5.56055C25.0566 5.5332 25.1465 5.51953 25.2402 5.51953C25.252 5.51953 25.2695 5.51953 25.293 5.51953C25.3203 5.51953 25.3457 5.52344 25.3691 5.53125C25.3926 5.53516 25.4121 5.54297 25.4277 5.55469C25.4434 5.56641 25.4492 5.58203 25.4453 5.60156C25.3438 6.11328 25.2949 6.63477 25.2988 7.16602C25.3027 7.69336 25.3301 8.20117 25.3809 8.68945C25.4238 8.49414 25.4863 8.27344 25.5684 8.02734C25.6543 7.77734 25.752 7.52734 25.8613 7.27734C25.9746 7.02344 26.0957 6.7832 26.2246 6.55664C26.3574 6.32617 26.4922 6.13281 26.6289 5.97656C26.6953 5.90234 26.7617 5.83984 26.8281 5.78906C26.8984 5.73438 26.9844 5.70703 27.0859 5.70703C27.1445 5.70703 27.1934 5.71875 27.2324 5.74219C27.2715 5.76562 27.3027 5.79492 27.3262 5.83008C27.3535 5.86523 27.373 5.90625 27.3848 5.95312C27.4004 5.99609 27.4121 6.03906 27.4199 6.08203C27.4395 6.19531 27.459 6.3418 27.4785 6.52148C27.498 6.70117 27.5215 6.89258 27.5488 7.0957C27.5801 7.29883 27.6172 7.50391 27.6602 7.71094C27.7031 7.91406 27.7578 8.09961 27.8242 8.26758C27.8906 8.43164 27.9707 8.56641 28.0645 8.67188C28.1582 8.77734 28.2695 8.83008 28.3984 8.83008C28.5039 8.83008 28.6055 8.81055 28.7031 8.77148C28.8047 8.72852 28.9004 8.67578 28.9902 8.61328C29.0801 8.54688 29.1641 8.47266 29.2422 8.39062C29.3203 8.30469 29.3906 8.2207 29.4531 8.13867L29.4941 8.16211ZM32.5879 7.27148C32.5879 7.54492 32.543 7.79883 32.4531 8.0332C32.3633 8.26758 32.2363 8.4707 32.0723 8.64258C31.9082 8.81445 31.7109 8.94922 31.4805 9.04688C31.2539 9.14453 31.002 9.19336 30.7246 9.19336C30.4785 9.19336 30.2559 9.14648 30.0566 9.05273C29.8613 8.96289 29.6934 8.83984 29.5527 8.68359C29.4121 8.52734 29.3047 8.3457 29.2305 8.13867C29.1562 7.92773 29.1191 7.70312 29.1191 7.46484C29.1191 7.26562 29.1465 7.07617 29.2012 6.89648C29.2598 6.7168 29.3398 6.55078 29.4414 6.39844C29.543 6.24219 29.6641 6.09961 29.8047 5.9707C29.9453 5.83789 30.0977 5.71875 30.2617 5.61328L30.332 5.66602C30.168 5.85742 30.0391 6.06836 29.9453 6.29883C29.8516 6.5293 29.8047 6.77344 29.8047 7.03125C29.8047 7.21875 29.832 7.41016 29.8867 7.60547C29.9453 7.79688 30.0293 7.97266 30.1387 8.13281C30.248 8.29297 30.3848 8.42383 30.5488 8.52539C30.7129 8.62695 30.9004 8.67773 31.1113 8.67773C31.2441 8.67773 31.3691 8.65039 31.4863 8.5957C31.6035 8.54102 31.7051 8.4668 31.791 8.37305C31.8809 8.2793 31.9512 8.17383 32.002 8.05664C32.0566 7.93555 32.084 7.81055 32.084 7.68164C32.084 7.55664 32.0645 7.43555 32.0254 7.31836C31.9902 7.19727 31.9395 7.08594 31.873 6.98438C31.8066 6.87891 31.7266 6.78516 31.6328 6.70312C31.5391 6.61719 31.4375 6.54688 31.3281 6.49219C31.2656 6.46094 31.2051 6.4375 31.1465 6.42188C31.0918 6.40625 31.0312 6.38867 30.9648 6.36914C30.9375 6.36523 30.9082 6.35938 30.877 6.35156C30.8457 6.33984 30.8164 6.32812 30.7891 6.31641C30.7617 6.30078 30.7383 6.28125 30.7188 6.25781C30.6992 6.23438 30.6895 6.20508 30.6895 6.16992C30.6895 6.09961 30.7148 6.03516 30.7656 5.97656C30.8164 5.91797 30.877 5.86719 30.9473 5.82422C31.0176 5.77734 31.0918 5.74219 31.1699 5.71875C31.248 5.69141 31.3164 5.67773 31.375 5.67773C31.5742 5.67773 31.75 5.72852 31.9023 5.83008C32.0547 5.93164 32.1816 6.06055 32.2832 6.2168C32.3848 6.37305 32.4609 6.54492 32.5117 6.73242C32.5625 6.91992 32.5879 7.09961 32.5879 7.27148ZM36.9648 8.16211C36.8789 8.30664 36.7773 8.44141 36.6602 8.56641C36.5469 8.69141 36.4199 8.80078 36.2793 8.89453C36.1426 8.98828 35.9941 9.06055 35.834 9.11133C35.6738 9.16602 35.5078 9.19336 35.3359 9.19336C35.082 9.19336 34.8574 9.15039 34.6621 9.06445C34.4707 8.97852 34.3047 8.86328 34.1641 8.71875C34.0234 8.57031 33.9062 8.39844 33.8125 8.20312C33.7188 8.00781 33.6445 7.80469 33.5898 7.59375C33.5352 7.37891 33.4961 7.16016 33.4727 6.9375C33.4492 6.71484 33.4375 6.50195 33.4375 6.29883C33.4375 6.11133 33.4453 5.91992 33.4609 5.72461C33.4766 5.52539 33.5 5.32227 33.5312 5.11523C33.4102 5.11914 33.291 5.12109 33.1738 5.12109C33.0605 5.12109 32.9473 5.12109 32.834 5.12109C32.7598 5.12109 32.6758 5.11914 32.582 5.11523C32.4883 5.11133 32.4004 5.0957 32.3184 5.06836C32.2363 5.04102 32.168 5 32.1133 4.94531C32.0586 4.89062 32.0312 4.81055 32.0312 4.70508C32.0312 4.64648 32.043 4.59961 32.0664 4.56445C32.0859 4.5293 32.1152 4.50391 32.1543 4.48828C32.1895 4.46875 32.2324 4.45703 32.2832 4.45312C32.3301 4.44531 32.3789 4.44141 32.4297 4.44141C32.4883 4.44141 32.627 4.45117 32.8457 4.4707C33.0645 4.49023 33.3281 4.51172 33.6367 4.53516C33.7344 4.07422 33.8594 3.62109 34.0117 3.17578C34.168 2.73047 34.3438 2.32422 34.5391 1.95703H34.6211C34.4961 2.38281 34.3848 2.8125 34.2871 3.24609C34.1934 3.67969 34.123 4.11914 34.0762 4.56445C34.3613 4.58398 34.6543 4.60156 34.9551 4.61719C35.2598 4.62891 35.5566 4.63477 35.8457 4.63477C36.2715 4.63477 36.6172 4.63086 36.8828 4.62305C37.1484 4.61523 37.3574 4.60547 37.5098 4.59375C37.6895 4.57812 37.8242 4.5625 37.9141 4.54688L37.9375 4.64648C37.7031 4.70117 37.4355 4.75391 37.1348 4.80469C36.834 4.85156 36.5137 4.89453 36.1738 4.93359C35.834 4.96875 35.4824 5 35.1191 5.02734C34.7559 5.05469 34.3945 5.07617 34.0352 5.0918C34.0273 5.16992 34.0234 5.25 34.0234 5.33203C34.0234 5.41016 34.0234 5.48828 34.0234 5.56641C34.0234 5.75391 34.0312 5.96094 34.0469 6.1875C34.0664 6.41406 34.0996 6.64258 34.1465 6.87305C34.1934 7.09961 34.2559 7.32227 34.334 7.54102C34.416 7.75586 34.5215 7.94727 34.6504 8.11523C34.7832 8.2793 34.9414 8.41211 35.125 8.51367C35.3086 8.61523 35.5254 8.66602 35.7754 8.66602C36.0059 8.66602 36.2129 8.61523 36.3965 8.51367C36.584 8.41211 36.7617 8.28711 36.9297 8.13867L36.9648 8.16211ZM41.7168 8.13867C41.6504 8.2793 41.5684 8.41992 41.4707 8.56055C41.377 8.69727 41.2715 8.82227 41.1543 8.93555C41.0371 9.04492 40.9082 9.13477 40.7676 9.20508C40.627 9.27539 40.4766 9.31055 40.3164 9.31055C40.1406 9.31055 39.9883 9.26367 39.8594 9.16992C39.7305 9.08008 39.6211 8.96094 39.5312 8.8125C39.4414 8.66016 39.3672 8.48633 39.3086 8.29102C39.25 8.0957 39.2012 7.89453 39.1621 7.6875C39.123 7.48047 39.0898 7.27344 39.0625 7.06641C39.0391 6.85938 39.0156 6.66992 38.9922 6.49805C38.8672 6.66211 38.7539 6.83594 38.6523 7.01953C38.5508 7.20312 38.4531 7.39453 38.3594 7.59375C38.2656 7.78906 38.1738 7.98828 38.084 8.19141C37.9941 8.39453 37.8984 8.5957 37.7969 8.79492C37.7734 8.83789 37.75 8.88477 37.7266 8.93555C37.7031 8.98242 37.6758 9.02539 37.6445 9.06445C37.6133 9.10742 37.5762 9.14258 37.5332 9.16992C37.4902 9.19727 37.4395 9.21094 37.3809 9.21094C37.3262 9.21094 37.2793 9.20117 37.2402 9.18164C37.2051 9.16211 37.1738 9.13672 37.1465 9.10547C37.123 9.07812 37.1035 9.04688 37.0879 9.01172C37.0762 8.97656 37.0664 8.94336 37.0586 8.91211C37.0117 8.74414 36.9688 8.5332 36.9297 8.2793C36.8945 8.02539 36.8633 7.75391 36.8359 7.46484C36.8086 7.17578 36.7871 6.88281 36.7715 6.58594C36.7598 6.28516 36.7539 6.00781 36.7539 5.75391C36.7539 5.39062 36.7773 5.01758 36.8242 4.63477C36.8711 4.24805 36.9434 3.87109 37.041 3.50391C37.1426 3.13672 37.2695 2.79102 37.4219 2.4668C37.5781 2.13867 37.7617 1.85156 37.9727 1.60547C38.1836 1.35938 38.4238 1.16406 38.6934 1.01953C38.9668 0.875 39.2715 0.802734 39.6074 0.802734C39.8301 0.802734 40.0059 0.869141 40.1348 1.00195C40.2637 1.13086 40.3281 1.31641 40.3281 1.55859C40.3281 1.92188 40.2637 2.27148 40.1348 2.60742C40.0098 2.93945 39.8477 3.25781 39.6484 3.5625C39.4531 3.86719 39.2344 4.15625 38.9922 4.42969C38.7539 4.69922 38.5234 4.94922 38.3008 5.17969L38.2246 5.12109C38.3223 5.01172 38.4258 4.87695 38.5352 4.7168C38.6484 4.55273 38.7578 4.37695 38.8633 4.18945C38.9727 3.99805 39.0762 3.79883 39.1738 3.5918C39.2715 3.38086 39.3574 3.17383 39.4316 2.9707C39.5059 2.76758 39.5645 2.57227 39.6074 2.38477C39.6504 2.19336 39.6719 2.01953 39.6719 1.86328C39.6719 1.78125 39.6641 1.70313 39.6484 1.62891C39.6328 1.55469 39.6055 1.49023 39.5664 1.43555C39.5273 1.37695 39.4766 1.33203 39.4141 1.30078C39.3555 1.26562 39.2832 1.24805 39.1973 1.24805C39.0254 1.24805 38.8633 1.31445 38.7109 1.44727C38.5625 1.58008 38.4258 1.75977 38.3008 1.98633C38.1758 2.20898 38.0645 2.46875 37.9668 2.76562C37.873 3.0625 37.791 3.37305 37.7207 3.69727C37.6543 4.02148 37.6035 4.34961 37.5684 4.68164C37.5332 5.01367 37.5156 5.33008 37.5156 5.63086C37.5156 5.83398 37.5156 6.03906 37.5156 6.24609C37.5156 6.45312 37.5195 6.66992 37.5273 6.89648C37.5391 7.12305 37.5566 7.36328 37.5801 7.61719C37.6074 7.87109 37.6445 8.14648 37.6914 8.44336C37.8633 7.99805 38.0449 7.5625 38.2363 7.13672C38.4277 6.70703 38.6348 6.31445 38.8574 5.95898C38.8887 5.9082 38.9199 5.85742 38.9512 5.80664C38.9863 5.75586 39.0234 5.71094 39.0625 5.67188C39.1016 5.62891 39.1445 5.59375 39.1914 5.56641C39.2383 5.53906 39.2891 5.52539 39.3438 5.52539C39.4102 5.52539 39.4629 5.54492 39.502 5.58398C39.541 5.61914 39.5723 5.66406 39.5957 5.71875C39.6191 5.77344 39.6348 5.83203 39.6426 5.89453C39.6543 5.95703 39.6641 6.01367 39.6719 6.06445C39.6875 6.17773 39.7051 6.32422 39.7246 6.50391C39.7441 6.68359 39.7676 6.87695 39.7949 7.08398C39.8223 7.28711 39.8555 7.49219 39.8945 7.69922C39.9375 7.90625 39.9902 8.09375 40.0527 8.26172C40.1191 8.42578 40.1973 8.56055 40.2871 8.66602C40.377 8.77148 40.4844 8.82422 40.6094 8.82422C40.7109 8.82422 40.8125 8.80273 40.9141 8.75977C41.0156 8.7168 41.1133 8.66211 41.207 8.5957C41.3008 8.5293 41.3867 8.45312 41.4648 8.36719C41.5469 8.28125 41.6152 8.19727 41.6699 8.11523L41.7168 8.13867ZM45.168 8.16211C45.0664 8.31055 44.9434 8.44922 44.7988 8.57812C44.6582 8.70703 44.502 8.81836 44.3301 8.91211C44.1621 9.00586 43.9844 9.08008 43.7969 9.13477C43.6133 9.18945 43.4277 9.2168 43.2402 9.2168C42.9746 9.2168 42.7266 9.18164 42.4961 9.11133C42.2656 9.04492 42.0645 8.94141 41.8926 8.80078C41.7207 8.66016 41.5859 8.48438 41.4883 8.27344C41.3906 8.05859 41.3418 7.80859 41.3418 7.52344C41.3418 7.24219 41.3926 6.98047 41.4941 6.73828C41.5996 6.49219 41.7422 6.2793 41.9219 6.09961C42.1055 5.91602 42.3203 5.77148 42.5664 5.66602C42.8125 5.56055 43.0762 5.50781 43.3574 5.50781C43.4902 5.50781 43.6133 5.52734 43.7266 5.56641C43.8438 5.60156 43.9453 5.65625 44.0312 5.73047C44.1172 5.80078 44.1836 5.88867 44.2305 5.99414C44.2812 6.09961 44.3066 6.2207 44.3066 6.35742C44.3066 6.52148 44.2734 6.66602 44.207 6.79102C44.1406 6.91602 44.0527 7.02539 43.9434 7.11914C43.834 7.21289 43.709 7.29102 43.5684 7.35352C43.4316 7.41602 43.2871 7.4668 43.1348 7.50586C42.9863 7.54492 42.8379 7.57422 42.6895 7.59375C42.5449 7.60938 42.4121 7.61719 42.291 7.61719H42.1504C42.2012 7.97266 42.3418 8.24414 42.5723 8.43164C42.8027 8.61914 43.1211 8.71289 43.5273 8.71289C43.8164 8.71289 44.0977 8.66211 44.3711 8.56055C44.6484 8.45898 44.8984 8.31836 45.1211 8.13867L45.168 8.16211ZM42.1328 7.44141H42.2793C42.4199 7.44141 42.5645 7.41992 42.7129 7.37695C42.8613 7.33008 42.9941 7.26367 43.1113 7.17773C43.2324 7.08789 43.332 6.97852 43.4102 6.84961C43.4883 6.7207 43.5273 6.57422 43.5273 6.41016C43.5273 6.25 43.4922 6.11719 43.4219 6.01172C43.3555 5.90625 43.2383 5.85352 43.0703 5.85352C42.8984 5.85352 42.752 5.90625 42.6309 6.01172C42.5137 6.11328 42.418 6.24023 42.3438 6.39258C42.2695 6.54102 42.2148 6.69922 42.1797 6.86719C42.1484 7.03125 42.1328 7.17773 42.1328 7.30664V7.44141ZM49.3867 8.16211C49.3164 8.31836 49.2266 8.45898 49.1172 8.58398C49.0117 8.70898 48.8965 8.81641 48.7715 8.90625C48.6465 8.99219 48.5176 9.05859 48.3848 9.10547C48.252 9.15625 48.125 9.18164 48.0039 9.18164C47.7773 9.18164 47.5859 9.14258 47.4297 9.06445C47.2734 8.98633 47.1465 8.88086 47.0488 8.74805C46.9512 8.61523 46.8809 8.45898 46.8379 8.2793C46.7949 8.09961 46.7734 7.9082 46.7734 7.70508C46.7734 7.54883 46.7852 7.38672 46.8086 7.21875C46.832 7.05078 46.8652 6.88867 46.9082 6.73242C46.916 6.70898 46.9238 6.68164 46.9316 6.65039C46.9395 6.61523 46.9434 6.58594 46.9434 6.5625C46.9434 6.54297 46.9316 6.52734 46.9082 6.51562C46.8418 6.49219 46.7715 6.4707 46.6973 6.45117C46.623 6.42773 46.5488 6.40234 46.4746 6.375C46.4043 6.34766 46.3359 6.31641 46.2695 6.28125C46.207 6.24609 46.1523 6.20117 46.1055 6.14648C46.1016 6.38086 46.0625 6.61914 45.9883 6.86133C45.9141 7.09961 45.8145 7.33008 45.6895 7.55273C45.5684 7.77148 45.4258 7.97656 45.2617 8.16797C45.0977 8.35938 44.9238 8.52539 44.7402 8.66602L44.6816 8.60742C44.7949 8.48242 44.8984 8.33398 44.9922 8.16211C45.0859 7.99023 45.166 7.81055 45.2324 7.62305C45.2988 7.43555 45.3496 7.24609 45.3848 7.05469C45.4238 6.86328 45.4434 6.68359 45.4434 6.51562C45.4434 6.42969 45.4355 6.34961 45.4199 6.27539C45.4043 6.19727 45.3867 6.12305 45.3672 6.05273C45.3516 5.98242 45.3359 5.91602 45.3203 5.85352C45.3047 5.78711 45.2969 5.7207 45.2969 5.6543C45.2969 5.54492 45.332 5.45898 45.4023 5.39648C45.4727 5.33398 45.5625 5.30273 45.6719 5.30273C45.7305 5.30273 45.7754 5.32031 45.8066 5.35547C45.8379 5.38672 45.8652 5.42578 45.8887 5.47266C45.9121 5.51953 45.9395 5.56836 45.9707 5.61914C46.002 5.66992 46.0469 5.71289 46.1055 5.74805C46.1797 5.79102 46.2734 5.82227 46.3867 5.8418C46.5 5.86133 46.6191 5.87891 46.7441 5.89453C46.8691 5.91016 46.9941 5.92578 47.1191 5.94141C47.2441 5.95703 47.3555 5.98438 47.4531 6.02344C47.5547 6.05859 47.6367 6.10938 47.6992 6.17578C47.7617 6.23828 47.793 6.32422 47.793 6.43359C47.793 6.48828 47.7871 6.54297 47.7754 6.59766C47.7676 6.64844 47.7539 6.69727 47.7344 6.74414C47.6875 6.9082 47.6465 7.07617 47.6113 7.24805C47.5801 7.41602 47.5645 7.58398 47.5645 7.75195C47.5645 7.89648 47.5742 8.0293 47.5938 8.15039C47.6172 8.26758 47.6582 8.36914 47.7168 8.45508C47.7754 8.54102 47.8535 8.60742 47.9512 8.6543C48.0488 8.70117 48.1738 8.72461 48.3262 8.72461C48.5449 8.72461 48.7363 8.67188 48.9004 8.56641C49.0645 8.45703 49.209 8.31445 49.334 8.13867L49.3867 8.16211ZM55.668 6.92578C55.668 7.14453 55.625 7.37305 55.5391 7.61133C55.457 7.8457 55.3418 8.06055 55.1934 8.25586C55.0449 8.45117 54.8672 8.61328 54.6602 8.74219C54.457 8.86719 54.2344 8.92969 53.9922 8.92969C53.9062 8.92969 53.8184 8.91602 53.7285 8.88867C53.6426 8.85742 53.5625 8.81445 53.4883 8.75977C53.418 8.70117 53.3594 8.63281 53.3125 8.55469C53.2695 8.47656 53.248 8.38867 53.248 8.29102C53.248 8.24414 53.2676 8.20508 53.3066 8.17383C53.3457 8.13867 53.3887 8.12109 53.4355 8.12109C53.4941 8.12109 53.543 8.15039 53.582 8.20898C53.625 8.26758 53.6699 8.33203 53.7168 8.40234C53.7676 8.46875 53.8262 8.53125 53.8926 8.58984C53.9629 8.64844 54.0547 8.67773 54.168 8.67773C54.3086 8.67773 54.4336 8.63086 54.543 8.53711C54.6523 8.43945 54.7441 8.32227 54.8184 8.18555C54.8926 8.04883 54.9492 7.9043 54.9883 7.75195C55.0273 7.5957 55.0469 7.45898 55.0469 7.3418C55.0469 7.19336 55.0273 7.04688 54.9883 6.90234C54.9492 6.75781 54.8887 6.63086 54.8066 6.52148C54.7285 6.4082 54.627 6.31836 54.502 6.25195C54.3809 6.18164 54.2383 6.14648 54.0742 6.14648C53.8828 6.14648 53.7207 6.21094 53.5879 6.33984C53.459 6.46875 53.3516 6.63477 53.2656 6.83789C53.1836 7.03711 53.1191 7.26172 53.0723 7.51172C53.0293 7.76172 52.9961 8.00977 52.9727 8.25586C52.9531 8.49805 52.9414 8.72266 52.9375 8.92969C52.9336 9.13672 52.9316 9.30078 52.9316 9.42188C52.9316 9.98828 52.916 10.498 52.8848 10.9512C52.8535 11.4082 52.8105 11.8203 52.7559 12.1875C52.7012 12.5547 52.6367 12.8789 52.5625 13.1602C52.4883 13.4453 52.4082 13.6992 52.3223 13.9219H52.1758V11.1211C52.1758 10.2656 52.1602 9.41602 52.1289 8.57227C52.0977 7.72461 52.082 6.87109 52.082 6.01172C52.082 5.92188 52.0996 5.84766 52.1348 5.78906C52.1738 5.72656 52.2227 5.67578 52.2812 5.63672C52.3438 5.59766 52.4141 5.57031 52.4922 5.55469C52.5703 5.53906 52.6504 5.53125 52.7324 5.53125C52.7559 5.53125 52.7949 5.53711 52.8496 5.54883C52.9043 5.55664 52.9316 5.57812 52.9316 5.61328C52.9316 5.88672 52.9297 6.15625 52.9258 6.42188C52.9219 6.6875 52.916 6.95508 52.9082 7.22461C52.9629 7.03711 53.0332 6.84375 53.1191 6.64453C53.2051 6.44141 53.3105 6.25781 53.4355 6.09375C53.5605 5.92969 53.709 5.79492 53.8809 5.68945C54.0527 5.58398 54.2539 5.53125 54.4844 5.53125C54.6797 5.53125 54.8496 5.57031 54.9941 5.64844C55.1426 5.72656 55.2656 5.83008 55.3633 5.95898C55.4648 6.08789 55.541 6.23633 55.5918 6.4043C55.6426 6.57227 55.668 6.74609 55.668 6.92578ZM59.3418 8.35547C59.2168 8.61328 59.041 8.81836 58.8145 8.9707C58.5879 9.11914 58.3301 9.19336 58.041 9.19336C57.8027 9.19336 57.5898 9.12109 57.4023 8.97656C57.2148 8.83203 57.0488 8.64258 56.9043 8.4082C56.7637 8.17383 56.6426 7.91016 56.541 7.61719C56.4434 7.32031 56.3613 7.01953 56.2949 6.71484C56.2324 6.41016 56.1855 6.11719 56.1543 5.83594C56.127 5.55078 56.1133 5.30273 56.1133 5.0918C56.1133 4.83398 56.127 4.55078 56.1543 4.24219C56.1816 3.93359 56.2266 3.62305 56.2891 3.31055C56.3516 2.99414 56.4316 2.6875 56.5293 2.39062C56.6309 2.09375 56.752 1.83203 56.8926 1.60547C57.0371 1.375 57.2031 1.19141 57.3906 1.05469C57.5781 0.914062 57.793 0.84375 58.0352 0.84375C58.2422 0.84375 58.4102 0.904297 58.5391 1.02539C58.668 1.14648 58.7695 1.29687 58.8438 1.47656C58.918 1.65234 58.9668 1.83984 58.9902 2.03906C59.0176 2.23828 59.0312 2.41602 59.0312 2.57227C59.0312 2.99414 58.9805 3.41016 58.8789 3.82031C58.7812 4.22656 58.6445 4.61133 58.4688 4.97461C58.2969 5.33398 58.0938 5.66211 57.8594 5.95898C57.625 6.25195 57.373 6.49805 57.1035 6.69727C57.1582 6.95898 57.2227 7.21484 57.2969 7.46484C57.375 7.71094 57.4688 7.93164 57.5781 8.12695C57.6875 8.31836 57.8125 8.47461 57.9531 8.5957C58.0977 8.71289 58.2617 8.77148 58.4453 8.77148C58.6289 8.77148 58.7871 8.73438 58.9199 8.66016C59.0527 8.58594 59.1758 8.47656 59.2891 8.33203L59.3418 8.35547ZM56.9277 4.74023C56.9238 4.82617 56.9219 4.93164 56.9219 5.05664C56.9258 5.18164 56.9316 5.32031 56.9395 5.47266C56.9512 5.62109 56.9668 5.78125 56.9863 5.95312C57.0059 6.125 57.0312 6.30078 57.0625 6.48047C57.3242 6.24609 57.5469 5.98633 57.7305 5.70117C57.9141 5.41602 58.0645 5.10938 58.1816 4.78125C58.2988 4.44922 58.3828 4.10156 58.4336 3.73828C58.4883 3.37109 58.5156 2.99023 58.5156 2.5957C58.5156 2.54492 58.5137 2.47852 58.5098 2.39648C58.5098 2.31445 58.5039 2.22656 58.4922 2.13281C58.4805 2.03906 58.4629 1.94531 58.4395 1.85156C58.4199 1.75781 58.3906 1.67383 58.3516 1.59961C58.3164 1.52148 58.2695 1.45898 58.2109 1.41211C58.1562 1.36133 58.0898 1.33594 58.0117 1.33594C57.8633 1.33594 57.7324 1.41016 57.6191 1.55859C57.5098 1.70313 57.4141 1.88867 57.332 2.11523C57.2539 2.3418 57.1875 2.5918 57.1328 2.86523C57.082 3.13867 57.041 3.40234 57.0098 3.65625C56.9785 3.90625 56.957 4.13086 56.9453 4.33008C56.9336 4.5293 56.9277 4.66602 56.9277 4.74023ZM62.0312 5.92969C62.0312 5.97266 62.0156 6.01172 61.9844 6.04688C61.9531 6.07812 61.916 6.09375 61.873 6.09375C61.8379 6.09375 61.8008 6.08398 61.7617 6.06445C61.7227 6.04102 61.6777 6.01562 61.627 5.98828C61.5801 5.96094 61.5234 5.9375 61.457 5.91797C61.3945 5.89453 61.3223 5.88281 61.2402 5.88281C61.0488 5.88281 60.877 5.94336 60.7246 6.06445C60.5762 6.18164 60.4492 6.32812 60.3438 6.50391C60.2422 6.67969 60.1641 6.86719 60.1094 7.06641C60.0547 7.26562 60.0273 7.44531 60.0273 7.60547C60.0273 7.71875 60.0371 7.83008 60.0566 7.93945C60.0762 8.04492 60.1094 8.14258 60.1562 8.23242C60.207 8.31836 60.2754 8.38867 60.3613 8.44336C60.4473 8.49414 60.5566 8.51953 60.6895 8.51953C60.8301 8.51953 60.9648 8.49414 61.0938 8.44336C61.2227 8.38867 61.3438 8.31836 61.457 8.23242C61.4609 8.10742 61.4805 7.97656 61.5156 7.83984C61.5547 7.69922 61.6035 7.5625 61.6621 7.42969C61.7207 7.29297 61.7871 7.16406 61.8613 7.04297C61.9395 6.92188 62.0195 6.81445 62.1016 6.7207L62.1777 6.76758C62.1348 6.90039 62.1035 7.03711 62.084 7.17773C62.0645 7.31836 62.0547 7.45703 62.0547 7.59375C62.0547 7.73438 62.0664 7.86719 62.0898 7.99219C62.1133 8.11719 62.1543 8.22656 62.2129 8.32031C62.2715 8.41016 62.3516 8.48242 62.4531 8.53711C62.5547 8.58789 62.6855 8.61328 62.8457 8.61328C63.041 8.61328 63.2207 8.56836 63.3848 8.47852C63.5488 8.38867 63.6934 8.27539 63.8184 8.13867L63.8652 8.16211C63.7949 8.29883 63.7031 8.42969 63.5898 8.55469C63.4766 8.67969 63.3496 8.79297 63.209 8.89453C63.0723 8.99219 62.9258 9.07031 62.7695 9.12891C62.6133 9.1875 62.459 9.2168 62.3066 9.2168C62.0918 9.2168 61.916 9.1543 61.7793 9.0293C61.6426 8.9082 61.5488 8.75391 61.498 8.56641C61.334 8.73047 61.1504 8.86914 60.9473 8.98242C60.748 9.0918 60.5371 9.14648 60.3145 9.14648C60.1504 9.14648 60.0039 9.11523 59.875 9.05273C59.75 8.99414 59.6445 8.91406 59.5586 8.8125C59.4727 8.71094 59.4062 8.5918 59.3594 8.45508C59.3164 8.31445 59.2949 8.16797 59.2949 8.01562C59.2949 7.83984 59.3223 7.66016 59.377 7.47656C59.4355 7.28906 59.5137 7.10547 59.6113 6.92578C59.7129 6.74609 59.832 6.57617 59.9688 6.41602C60.1055 6.25586 60.2539 6.11523 60.4141 5.99414C60.5781 5.87305 60.75 5.77734 60.9297 5.70703C61.1094 5.63672 61.293 5.60156 61.4805 5.60156C61.5234 5.60156 61.5762 5.60742 61.6387 5.61914C61.7012 5.62695 61.7617 5.64258 61.8203 5.66602C61.8789 5.68945 61.9277 5.72266 61.9668 5.76562C62.0098 5.80859 62.0312 5.86328 62.0312 5.92969ZM67.457 8.16211C67.3711 8.30664 67.2695 8.44141 67.1523 8.56641C67.0391 8.69141 66.9121 8.80078 66.7715 8.89453C66.6348 8.98828 66.4863 9.06055 66.3262 9.11133C66.166 9.16602 66 9.19336 65.8281 9.19336C65.5742 9.19336 65.3496 9.15039 65.1543 9.06445C64.9629 8.97852 64.7969 8.86328 64.6562 8.71875C64.5156 8.57031 64.3984 8.39844 64.3047 8.20312C64.2109 8.00781 64.1367 7.80469 64.082 7.59375C64.0273 7.37891 63.9883 7.16016 63.9648 6.9375C63.9414 6.71484 63.9297 6.50195 63.9297 6.29883C63.9297 6.11133 63.9375 5.91992 63.9531 5.72461C63.9688 5.52539 63.9922 5.32227 64.0234 5.11523C63.9023 5.11914 63.7832 5.12109 63.666 5.12109C63.5527 5.12109 63.4395 5.12109 63.3262 5.12109C63.252 5.12109 63.168 5.11914 63.0742 5.11523C62.9805 5.11133 62.8926 5.0957 62.8105 5.06836C62.7285 5.04102 62.6602 5 62.6055 4.94531C62.5508 4.89062 62.5234 4.81055 62.5234 4.70508C62.5234 4.64648 62.5352 4.59961 62.5586 4.56445C62.5781 4.5293 62.6074 4.50391 62.6465 4.48828C62.6816 4.46875 62.7246 4.45703 62.7754 4.45312C62.8223 4.44531 62.8711 4.44141 62.9219 4.44141C62.9805 4.44141 63.1191 4.45117 63.3379 4.4707C63.5566 4.49023 63.8203 4.51172 64.1289 4.53516C64.2266 4.07422 64.3516 3.62109 64.5039 3.17578C64.6602 2.73047 64.8359 2.32422 65.0312 1.95703H65.1133C64.9883 2.38281 64.877 2.8125 64.7793 3.24609C64.6855 3.67969 64.6152 4.11914 64.5684 4.56445C64.8535 4.58398 65.1465 4.60156 65.4473 4.61719C65.752 4.62891 66.0488 4.63477 66.3379 4.63477C66.7637 4.63477 67.1094 4.63086 67.375 4.62305C67.6406 4.61523 67.8496 4.60547 68.002 4.59375C68.1816 4.57812 68.3164 4.5625 68.4062 4.54688L68.4297 4.64648C68.1953 4.70117 67.9277 4.75391 67.627 4.80469C67.3262 4.85156 67.0059 4.89453 66.666 4.93359C66.3262 4.96875 65.9746 5 65.6113 5.02734C65.248 5.05469 64.8867 5.07617 64.5273 5.0918C64.5195 5.16992 64.5156 5.25 64.5156 5.33203C64.5156 5.41016 64.5156 5.48828 64.5156 5.56641C64.5156 5.75391 64.5234 5.96094 64.5391 6.1875C64.5586 6.41406 64.5918 6.64258 64.6387 6.87305C64.6855 7.09961 64.748 7.32227 64.8262 7.54102C64.9082 7.75586 65.0137 7.94727 65.1426 8.11523C65.2754 8.2793 65.4336 8.41211 65.6172 8.51367C65.8008 8.61523 66.0176 8.66602 66.2676 8.66602C66.498 8.66602 66.7051 8.61523 66.8887 8.51367C67.0762 8.41211 67.2539 8.28711 67.4219 8.13867L67.457 8.16211ZM70.8789 8.16211C70.7773 8.31055 70.6543 8.44922 70.5098 8.57812C70.3691 8.70703 70.2129 8.81836 70.041 8.91211C69.873 9.00586 69.6953 9.08008 69.5078 9.13477C69.3242 9.18945 69.1387 9.2168 68.9512 9.2168C68.6855 9.2168 68.4375 9.18164 68.207 9.11133C67.9766 9.04492 67.7754 8.94141 67.6035 8.80078C67.4316 8.66016 67.2969 8.48438 67.1992 8.27344C67.1016 8.05859 67.0527 7.80859 67.0527 7.52344C67.0527 7.24219 67.1035 6.98047 67.2051 6.73828C67.3105 6.49219 67.4531 6.2793 67.6328 6.09961C67.8164 5.91602 68.0312 5.77148 68.2773 5.66602C68.5234 5.56055 68.7871 5.50781 69.0684 5.50781C69.2012 5.50781 69.3242 5.52734 69.4375 5.56641C69.5547 5.60156 69.6562 5.65625 69.7422 5.73047C69.8281 5.80078 69.8945 5.88867 69.9414 5.99414C69.9922 6.09961 70.0176 6.2207 70.0176 6.35742C70.0176 6.52148 69.9844 6.66602 69.918 6.79102C69.8516 6.91602 69.7637 7.02539 69.6543 7.11914C69.5449 7.21289 69.4199 7.29102 69.2793 7.35352C69.1426 7.41602 68.998 7.4668 68.8457 7.50586C68.6973 7.54492 68.5488 7.57422 68.4004 7.59375C68.2559 7.60938 68.123 7.61719 68.002 7.61719H67.8613C67.9121 7.97266 68.0527 8.24414 68.2832 8.43164C68.5137 8.61914 68.832 8.71289 69.2383 8.71289C69.5273 8.71289 69.8086 8.66211 70.082 8.56055C70.3594 8.45898 70.6094 8.31836 70.832 8.13867L70.8789 8.16211ZM67.8438 7.44141H67.9902C68.1309 7.44141 68.2754 7.41992 68.4238 7.37695C68.5723 7.33008 68.7051 7.26367 68.8223 7.17773C68.9434 7.08789 69.043 6.97852 69.1211 6.84961C69.1992 6.7207 69.2383 6.57422 69.2383 6.41016C69.2383 6.25 69.2031 6.11719 69.1328 6.01172C69.0664 5.90625 68.9492 5.85352 68.7812 5.85352C68.6094 5.85352 68.4629 5.90625 68.3418 6.01172C68.2246 6.11328 68.1289 6.24023 68.0547 6.39258C67.9805 6.54102 67.9258 6.69922 67.8906 6.86719C67.8594 7.03125 67.8438 7.17773 67.8438 7.30664V7.44141Z" fill="white"/>
</svg>
